<svg xmlns="http://www.w3.org/2000/svg" viewBox="0 0 1155.35 104.09"><defs><style>.cls-1{fill:none;stroke:#000;stroke-miterlimit:10;stroke-width:3px;}.cls-2{fill:#eac852;}</style></defs><g id="Camada_2" data-name="Camada 2"><g id="Camada_1-2" data-name="Camada 1"><path class="cls-1" d="M1.5,62.22a38.1,38.1,0,0,1,2.7-14,39.49,39.49,0,0,1,7.86-12.48,38.33,38.33,0,0,1,12.6-9,40.21,40.21,0,0,1,16.77-3.36A39.52,39.52,0,0,1,61,28.06,30.43,30.43,0,0,1,73.44,40.44L57.05,52.1a13,13,0,0,0-4.12-5.94,16.06,16.06,0,0,0-5.83-2.91A23.61,23.61,0,0,0,41,42.42a16.49,16.49,0,0,0-8,1.81A16.14,16.14,0,0,0,27.52,49a20.83,20.83,0,0,0-3.19,6.6,26,26,0,0,0-1,7.26,25.11,25.11,0,0,0,1.21,7.81A21.07,21.07,0,0,0,28,77.34a16.26,16.26,0,0,0,5.67,4.57,16.79,16.79,0,0,0,7.53,1.65,20.53,20.53,0,0,0,6-.94,16.1,16.1,0,0,0,5.61-3A13,13,0,0,0,56.72,74L74.21,84.44a23,23,0,0,1-7.7,9.79,40.22,40.22,0,0,1-12.21,6.22,44.93,44.93,0,0,1-13.53,2.14,36.17,36.17,0,0,1-15.89-3.47,39.6,39.6,0,0,1-12.43-9.23,42.65,42.65,0,0,1-8.09-13A39.46,39.46,0,0,1,1.5,62.22Z"/><path class="cls-1" d="M115.79,102.59a38.19,38.19,0,0,1-16.17-3.35,39.06,39.06,0,0,1-12.48-9,40.67,40.67,0,0,1-8-12.75A39.63,39.63,0,0,1,76.3,62.77a37.79,37.79,0,0,1,3-14.85,41,41,0,0,1,8.31-12.59,38.74,38.74,0,0,1,12.65-8.75,39.51,39.51,0,0,1,16-3.19,37.77,37.77,0,0,1,28.6,12.43,41.93,41.93,0,0,1,8,12.82,39.27,39.27,0,0,1,2.8,14.57A38.21,38.21,0,0,1,152.7,78a40.51,40.51,0,0,1-8.25,12.59,39.67,39.67,0,0,1-12.6,8.8A38.8,38.8,0,0,1,115.79,102.59ZM98.08,63a26.75,26.75,0,0,0,1.1,7.65,20.66,20.66,0,0,0,3.3,6.6A15.8,15.8,0,0,0,108,81.85a19.31,19.31,0,0,0,16,0A15.28,15.28,0,0,0,129.6,77a21.8,21.8,0,0,0,3.19-6.7,27.78,27.78,0,0,0,1-7.54,26.14,26.14,0,0,0-1.1-7.59,20.56,20.56,0,0,0-3.3-6.54,15.21,15.21,0,0,0-5.61-4.57,18,18,0,0,0-7.92-1.65,17,17,0,0,0-8,1.76,16.4,16.4,0,0,0-5.56,4.67,19.7,19.7,0,0,0-3.24,6.61A27.28,27.28,0,0,0,98.08,63Z"/><path class="cls-1" d="M223.81,102V60.9L210.72,89.83H199.28L186.19,60.9V102H164.74V23.94h23.43L205,60.68l16.94-36.74h23.32V102Z"/><path class="cls-1" d="M325.12,82q0,7-3.8,11.44A22.21,22.21,0,0,1,311.15,100,45.13,45.13,0,0,1,297.07,102H258.68V23.94H304a15.74,15.74,0,0,1,9.51,2.91,19.09,19.09,0,0,1,6.16,7.54A22.49,22.49,0,0,1,321.82,44,21.29,21.29,0,0,1,319,54.41,17.57,17.57,0,0,1,310.6,62a20.46,20.46,0,0,1,10.61,6.93Q325.13,73.88,325.12,82Zm-45-39.82v12h14.63a7.79,7.79,0,0,0,2.75-.5,4.5,4.5,0,0,0,2.2-1.81,6.69,6.69,0,0,0,.88-3.74,7.06,7.06,0,0,0-.72-3.47A4.52,4.52,0,0,0,298,42.81a5.4,5.4,0,0,0-2.58-.61Zm23.21,35.42a7.83,7.83,0,0,0-.72-3.46,6.1,6.1,0,0,0-1.92-2.37,4.72,4.72,0,0,0-2.86-.88H280.13V84h16.94a6.66,6.66,0,0,0,3.19-.77,5.67,5.67,0,0,0,2.25-2.2A6.7,6.7,0,0,0,303.34,77.62Z"/><path class="cls-1" d="M350.75,23.94h24L399.59,102H377.81l-4-15.29H351.71l-4,15.29H325.78ZM370,72.45,362.74,45l-7.26,27.5Z"/><path class="cls-1" d="M459.76,42.64H437.32V102H415.87V42.64H393.32V23.94h66.44Z"/><path class="cls-1" d="M523.23,83.34V102H467.57V23.94h54.67v18.7H489v11H517.4V71H489V83.34Z"/><path class="cls-1" d="M572.73,23.94h24L621.56,102H599.79l-4-15.29H573.68l-4,15.29H547.76ZM568.22,1.5h18.59l5.5,15.62-13.2,3.52Zm23.75,71L584.72,45l-7.26,27.5Z"/><path class="cls-1" d="M649.5,102V23.94h33.66a24.16,24.16,0,0,1,10.56,2.31,26.42,26.42,0,0,1,8.36,6.21,29.09,29.09,0,0,1,5.45,8.75A26.37,26.37,0,0,1,709.45,51a27.73,27.73,0,0,1-3.24,13.09,27.38,27.38,0,0,1-9,10.07,23.5,23.5,0,0,1-13.48,3.9H671v24ZM671,59.36h11.33a4.65,4.65,0,0,0,2.53-.77,5.71,5.71,0,0,0,2-2.64,12.46,12.46,0,0,0,.82-5,11.4,11.4,0,0,0-.93-5.11,5.56,5.56,0,0,0-2.31-2.54,5.92,5.92,0,0,0-2.7-.71H671Z"/><path class="cls-1" d="M753.23,102.59a38.19,38.19,0,0,1-16.17-3.35,39.06,39.06,0,0,1-12.48-9,40.67,40.67,0,0,1-8-12.75,39.63,39.63,0,0,1-2.81-14.69,37.79,37.79,0,0,1,3-14.85A41,41,0,0,1,725,35.33a38.74,38.74,0,0,1,12.65-8.75,39.51,39.51,0,0,1,16-3.19,37.77,37.77,0,0,1,28.6,12.43,41.93,41.93,0,0,1,8,12.82,39.27,39.27,0,0,1,2.8,14.57A38.21,38.21,0,0,1,790.14,78a40.51,40.51,0,0,1-8.25,12.59,39.67,39.67,0,0,1-12.6,8.8A38.8,38.8,0,0,1,753.23,102.59ZM735.52,63a26.75,26.75,0,0,0,1.1,7.65,20.66,20.66,0,0,0,3.3,6.6,15.8,15.8,0,0,0,5.56,4.61,19.31,19.31,0,0,0,16,0A15.28,15.28,0,0,0,767,77a21.8,21.8,0,0,0,3.19-6.7,27.78,27.78,0,0,0,1-7.54,26.14,26.14,0,0,0-1.1-7.59,20.56,20.56,0,0,0-3.3-6.54,15.21,15.21,0,0,0-5.61-4.57,18,18,0,0,0-7.92-1.65,17,17,0,0,0-8,1.76,16.4,16.4,0,0,0-5.56,4.67,19.7,19.7,0,0,0-3.24,6.61A27.28,27.28,0,0,0,735.52,63Z"/><path class="cls-1" d="M868.62,82q0,7-3.79,11.44A22.24,22.24,0,0,1,854.65,100,45.13,45.13,0,0,1,840.57,102H802.18V23.94H847.5A15.79,15.79,0,0,1,857,26.85a19.18,19.18,0,0,1,6.16,7.54A22.48,22.48,0,0,1,865.32,44a21.28,21.28,0,0,1-2.8,10.45A17.6,17.6,0,0,1,854.1,62a20.53,20.53,0,0,1,10.62,6.93Q868.62,73.88,868.62,82Zm-45-39.82v12h14.63a7.79,7.79,0,0,0,2.75-.5,4.5,4.5,0,0,0,2.2-1.81,6.69,6.69,0,0,0,.88-3.74,7.18,7.18,0,0,0-.71-3.47,4.58,4.58,0,0,0-1.87-1.86,5.44,5.44,0,0,0-2.59-.61Zm23.21,35.42a8,8,0,0,0-.71-3.46,6.22,6.22,0,0,0-1.93-2.37,4.7,4.7,0,0,0-2.86-.88H823.63V84h16.94a6.66,6.66,0,0,0,3.19-.77A5.69,5.69,0,0,0,846,81,6.7,6.7,0,0,0,846.84,77.62Z"/><path class="cls-1" d="M878.08,102V23.94h35.86a24.22,24.22,0,0,1,10.56,2.31,26.54,26.54,0,0,1,8.36,6.21,29.09,29.09,0,0,1,5.45,8.75A26.37,26.37,0,0,1,940.23,51a28.69,28.69,0,0,1-1.32,8.69,26.15,26.15,0,0,1-3.85,7.64,26.7,26.7,0,0,1-6,6L945.51,102H922l-13.75-24h-8.69v24Zm21.45-42.68h13.53a4,4,0,0,0,2.53-1,7.49,7.49,0,0,0,2-2.86,11.15,11.15,0,0,0,.82-4.51,10,10,0,0,0-.93-4.56,7.89,7.89,0,0,0-2.31-2.81,4.64,4.64,0,0,0-2.7-1h-13Z"/><path class="cls-1" d="M1008,83.34V102H952.33V23.94H1007v18.7H973.78v11h28.38V71H973.78V83.34Z"/><path class="cls-1" d="M1014.26,86.09l35.42-43.45h-33.77V23.94h59.62v16l-33.22,43.45h33.88V102h-61.93Z"/><path class="cls-1" d="M1104.46,23.94h24L1153.3,102h-21.78l-4-15.29h-22.07l-4,15.29h-21.89Zm19.25,48.51L1116.45,45l-7.26,27.5Z"/><path class="cls-2" d="M1.5,62.22a38.1,38.1,0,0,1,2.7-14,39.49,39.49,0,0,1,7.86-12.48,38.33,38.33,0,0,1,12.6-9,40.21,40.21,0,0,1,16.77-3.36A39.52,39.52,0,0,1,61,28.06,30.43,30.43,0,0,1,73.44,40.44L57.05,52.1a13,13,0,0,0-4.12-5.94,16.06,16.06,0,0,0-5.83-2.91A23.61,23.61,0,0,0,41,42.42a16.49,16.49,0,0,0-8,1.81A16.14,16.14,0,0,0,27.52,49a20.83,20.83,0,0,0-3.19,6.6,26,26,0,0,0-1,7.26,25.11,25.11,0,0,0,1.21,7.81A21.07,21.07,0,0,0,28,77.34a16.26,16.26,0,0,0,5.67,4.57,16.79,16.79,0,0,0,7.53,1.65,20.53,20.53,0,0,0,6-.94,16.1,16.1,0,0,0,5.61-3A13,13,0,0,0,56.72,74L74.21,84.44a23,23,0,0,1-7.7,9.79,40.22,40.22,0,0,1-12.21,6.22,44.93,44.93,0,0,1-13.53,2.14,36.17,36.17,0,0,1-15.89-3.47,39.6,39.6,0,0,1-12.43-9.23,42.65,42.65,0,0,1-8.09-13A39.46,39.46,0,0,1,1.5,62.22Z"/><path class="cls-2" d="M115.79,102.59a38.19,38.19,0,0,1-16.17-3.35,39.06,39.06,0,0,1-12.48-9,40.67,40.67,0,0,1-8-12.75A39.63,39.63,0,0,1,76.3,62.77a37.79,37.79,0,0,1,3-14.85,41,41,0,0,1,8.31-12.59,38.74,38.74,0,0,1,12.65-8.75,39.51,39.51,0,0,1,16-3.19,37.77,37.77,0,0,1,28.6,12.43,41.93,41.93,0,0,1,8,12.82,39.27,39.27,0,0,1,2.8,14.57A38.21,38.21,0,0,1,152.7,78a40.51,40.51,0,0,1-8.25,12.59,39.67,39.67,0,0,1-12.6,8.8A38.8,38.8,0,0,1,115.79,102.59ZM98.08,63a26.75,26.75,0,0,0,1.1,7.65,20.66,20.66,0,0,0,3.3,6.6A15.8,15.8,0,0,0,108,81.85a19.31,19.31,0,0,0,16,0A15.28,15.28,0,0,0,129.6,77a21.8,21.8,0,0,0,3.19-6.7,27.78,27.78,0,0,0,1-7.54,26.14,26.14,0,0,0-1.1-7.59,20.56,20.56,0,0,0-3.3-6.54,15.21,15.21,0,0,0-5.61-4.57,18,18,0,0,0-7.92-1.65,17,17,0,0,0-8,1.76,16.4,16.4,0,0,0-5.56,4.67,19.7,19.7,0,0,0-3.24,6.61A27.28,27.28,0,0,0,98.08,63Z"/><path class="cls-2" d="M223.81,102V60.9L210.72,89.83H199.28L186.19,60.9V102H164.74V23.94h23.43L205,60.68l16.94-36.74h23.32V102Z"/><path class="cls-2" d="M325.12,82q0,7-3.8,11.44A22.21,22.21,0,0,1,311.15,100,45.13,45.13,0,0,1,297.07,102H258.68V23.94H304a15.74,15.74,0,0,1,9.51,2.91,19.09,19.09,0,0,1,6.16,7.54A22.49,22.49,0,0,1,321.82,44,21.29,21.29,0,0,1,319,54.41,17.57,17.57,0,0,1,310.6,62a20.46,20.46,0,0,1,10.61,6.93Q325.13,73.88,325.12,82Zm-45-39.82v12h14.63a7.79,7.79,0,0,0,2.75-.5,4.5,4.5,0,0,0,2.2-1.81,6.69,6.69,0,0,0,.88-3.74,7.06,7.06,0,0,0-.72-3.47A4.52,4.52,0,0,0,298,42.81a5.4,5.4,0,0,0-2.58-.61Zm23.21,35.42a7.83,7.83,0,0,0-.72-3.46,6.1,6.1,0,0,0-1.92-2.37,4.72,4.72,0,0,0-2.86-.88H280.13V84h16.94a6.66,6.66,0,0,0,3.19-.77,5.67,5.67,0,0,0,2.25-2.2A6.7,6.7,0,0,0,303.34,77.62Z"/><path class="cls-2" d="M350.75,23.94h24L399.59,102H377.81l-4-15.29H351.71l-4,15.29H325.78ZM370,72.45,362.74,45l-7.26,27.5Z"/><path class="cls-2" d="M459.76,42.64H437.32V102H415.87V42.64H393.32V23.94h66.44Z"/><path class="cls-2" d="M523.23,83.34V102H467.57V23.94h54.67v18.7H489v11H517.4V71H489V83.34Z"/><path class="cls-2" d="M572.73,23.94h24L621.56,102H599.79l-4-15.29H573.68l-4,15.29H547.76ZM568.22,1.5h18.59l5.5,15.62-13.2,3.52Zm23.75,71L584.72,45l-7.26,27.5Z"/><path class="cls-2" d="M649.5,102V23.94h33.66a24.16,24.16,0,0,1,10.56,2.31,26.42,26.42,0,0,1,8.36,6.21,29.09,29.09,0,0,1,5.45,8.75A26.37,26.37,0,0,1,709.45,51a27.73,27.73,0,0,1-3.24,13.09,27.38,27.38,0,0,1-9,10.07,23.5,23.5,0,0,1-13.48,3.9H671v24ZM671,59.36h11.33a4.65,4.65,0,0,0,2.53-.77,5.71,5.71,0,0,0,2-2.64,12.46,12.46,0,0,0,.82-5,11.4,11.4,0,0,0-.93-5.11,5.56,5.56,0,0,0-2.31-2.54,5.92,5.92,0,0,0-2.7-.71H671Z"/><path class="cls-2" d="M753.23,102.59a38.19,38.19,0,0,1-16.17-3.35,39.06,39.06,0,0,1-12.48-9,40.67,40.67,0,0,1-8-12.75,39.63,39.63,0,0,1-2.81-14.69,37.79,37.79,0,0,1,3-14.85A41,41,0,0,1,725,35.33a38.74,38.74,0,0,1,12.65-8.75,39.51,39.51,0,0,1,16-3.19,37.77,37.77,0,0,1,28.6,12.43,41.93,41.93,0,0,1,8,12.82,39.27,39.27,0,0,1,2.8,14.57A38.21,38.21,0,0,1,790.14,78a40.51,40.51,0,0,1-8.25,12.59,39.67,39.67,0,0,1-12.6,8.8A38.8,38.8,0,0,1,753.23,102.59ZM735.52,63a26.75,26.75,0,0,0,1.1,7.65,20.66,20.66,0,0,0,3.3,6.6,15.8,15.8,0,0,0,5.56,4.61,19.31,19.31,0,0,0,16,0A15.28,15.28,0,0,0,767,77a21.8,21.8,0,0,0,3.19-6.7,27.78,27.78,0,0,0,1-7.54,26.14,26.14,0,0,0-1.1-7.59,20.56,20.56,0,0,0-3.3-6.54,15.21,15.21,0,0,0-5.61-4.57,18,18,0,0,0-7.92-1.65,17,17,0,0,0-8,1.76,16.4,16.4,0,0,0-5.56,4.67,19.7,19.7,0,0,0-3.24,6.61A27.28,27.28,0,0,0,735.52,63Z"/><path class="cls-2" d="M868.62,82q0,7-3.79,11.44A22.24,22.24,0,0,1,854.65,100,45.13,45.13,0,0,1,840.57,102H802.18V23.94H847.5A15.79,15.79,0,0,1,857,26.85a19.18,19.18,0,0,1,6.16,7.54A22.48,22.48,0,0,1,865.32,44a21.28,21.28,0,0,1-2.8,10.45A17.6,17.6,0,0,1,854.1,62a20.53,20.53,0,0,1,10.62,6.93Q868.62,73.88,868.62,82Zm-45-39.82v12h14.63a7.79,7.79,0,0,0,2.75-.5,4.5,4.5,0,0,0,2.2-1.81,6.69,6.69,0,0,0,.88-3.74,7.18,7.18,0,0,0-.71-3.47,4.58,4.58,0,0,0-1.87-1.86,5.44,5.44,0,0,0-2.59-.61Zm23.21,35.42a8,8,0,0,0-.71-3.46,6.22,6.22,0,0,0-1.93-2.37,4.7,4.7,0,0,0-2.86-.88H823.63V84h16.94a6.66,6.66,0,0,0,3.19-.77A5.69,5.69,0,0,0,846,81,6.7,6.7,0,0,0,846.84,77.62Z"/><path class="cls-2" d="M878.08,102V23.94h35.86a24.22,24.22,0,0,1,10.56,2.31,26.54,26.54,0,0,1,8.36,6.21,29.09,29.09,0,0,1,5.45,8.75A26.37,26.37,0,0,1,940.23,51a28.69,28.69,0,0,1-1.32,8.69,26.15,26.15,0,0,1-3.85,7.64,26.7,26.7,0,0,1-6,6L945.51,102H922l-13.75-24h-8.69v24Zm21.45-42.68h13.53a4,4,0,0,0,2.53-1,7.49,7.49,0,0,0,2-2.86,11.15,11.15,0,0,0,.82-4.51,10,10,0,0,0-.93-4.56,7.89,7.89,0,0,0-2.31-2.81,4.64,4.64,0,0,0-2.7-1h-13Z"/><path class="cls-2" d="M1008,83.34V102H952.33V23.94H1007v18.7H973.78v11h28.38V71H973.78V83.34Z"/><path class="cls-2" d="M1014.26,86.09l35.42-43.45h-33.77V23.94h59.62v16l-33.22,43.45h33.88V102h-61.93Z"/><path class="cls-2" d="M1104.46,23.94h24L1153.3,102h-21.78l-4-15.29h-22.07l-4,15.29h-21.89Zm19.25,48.51L1116.45,45l-7.26,27.5Z"/></g></g></svg>