<svg xmlns="http://www.w3.org/2000/svg" viewBox="0 0 510.98 82.2"><defs><style>.cls-1{fill:none;stroke:#000;stroke-miterlimit:10;stroke-width:3px;}.cls-2{fill:#eac852;}</style></defs><g id="Camada_2" data-name="Camada 2"><g id="Camada_1-2" data-name="Camada 1"><path class="cls-1" d="M1.5,40.33a38.1,38.1,0,0,1,2.7-14,39.49,39.49,0,0,1,7.86-12.48,38.33,38.33,0,0,1,12.6-9A40.21,40.21,0,0,1,41.43,1.5,39.52,39.52,0,0,1,61,6.17,30.43,30.43,0,0,1,73.44,18.55L57.05,30.21a13,13,0,0,0-4.13-5.94,16,16,0,0,0-5.83-2.91,23.48,23.48,0,0,0-6.1-.83,16.56,16.56,0,0,0-8,1.81,16.33,16.33,0,0,0-5.5,4.79,21,21,0,0,0-3.18,6.6,26,26,0,0,0-1,7.26,25.11,25.11,0,0,0,1.21,7.81A21.23,21.23,0,0,0,28,55.46,16.4,16.4,0,0,0,33.67,60a16.87,16.87,0,0,0,7.54,1.65,20.53,20.53,0,0,0,6-.94,16.1,16.1,0,0,0,5.61-3,13,13,0,0,0,3.85-5.61L74.21,62.55a23,23,0,0,1-7.7,9.79A40,40,0,0,1,54.3,78.55,45,45,0,0,1,40.77,80.7a36.17,36.17,0,0,1-15.89-3.47A39.91,39.91,0,0,1,12.45,68,42.77,42.77,0,0,1,4.36,55,39.46,39.46,0,0,1,1.5,40.33Z"/><path class="cls-1" d="M115.9,80.7a38.16,38.16,0,0,1-16.06-3.08,29.12,29.12,0,0,1-11-8.45,35.45,35.45,0,0,1-6.21-12.36,53.47,53.47,0,0,1-2-14.67V2.05h21.45V42.13a34.43,34.43,0,0,0,.77,7.35,20.57,20.57,0,0,0,2.42,6.26,12.66,12.66,0,0,0,4.23,4.34,11.9,11.9,0,0,0,6.33,1.59,12.39,12.39,0,0,0,6.49-1.59,11.89,11.89,0,0,0,4.23-4.39A22.14,22.14,0,0,0,129,49.37a33.88,33.88,0,0,0,.77-7.24V2.05h21.45V42.14a51.67,51.67,0,0,1-2.15,15.16,35.86,35.86,0,0,1-6.43,12.31,28.67,28.67,0,0,1-10.95,8.18A39.13,39.13,0,0,1,115.9,80.7Z"/><path class="cls-1" d="M163.53,80.15V2.05H185v59.4H220.4v18.7Z"/><path class="cls-1" d="M278.26,20.75H255.82v59.4H234.37V20.75H211.82V2.05h66.44Z"/><path class="cls-1" d="M320.17,80.7a38.13,38.13,0,0,1-16.06-3.08,29,29,0,0,1-10.95-8.45A35.45,35.45,0,0,1,287,56.81a53.47,53.47,0,0,1-2-14.67V2.05h21.45V42.13a33.8,33.8,0,0,0,.77,7.35,20.57,20.57,0,0,0,2.42,6.26,12.66,12.66,0,0,0,4.23,4.34,11.87,11.87,0,0,0,6.33,1.59,12.39,12.39,0,0,0,6.49-1.59,11.89,11.89,0,0,0,4.23-4.39,22.14,22.14,0,0,0,2.37-6.32,33.88,33.88,0,0,0,.77-7.24V2.05h21.45V42.14a51.67,51.67,0,0,1-2.15,15.16,35.86,35.86,0,0,1-6.43,12.31A28.67,28.67,0,0,1,336,77.79,39.17,39.17,0,0,1,320.17,80.7Z"/><path class="cls-1" d="M367.8,80.15V2.05h35.86a24.22,24.22,0,0,1,10.56,2.31,26.65,26.65,0,0,1,8.36,6.21A29.06,29.06,0,0,1,428,19.32,26.18,26.18,0,0,1,430,29.11a28.69,28.69,0,0,1-1.32,8.69,26.58,26.58,0,0,1-3.85,7.65,27.29,27.29,0,0,1-6,6l16.5,28.71H411.69l-13.75-24h-8.69v24Zm21.45-42.68h13.53a4,4,0,0,0,2.53-1,7.58,7.58,0,0,0,2-2.86,11.14,11.14,0,0,0,.83-4.51,9.86,9.86,0,0,0-.94-4.57,7.65,7.65,0,0,0-2.31-2.8,4.62,4.62,0,0,0-2.69-1h-13Z"/><path class="cls-1" d="M460.09,2.05h24l24.86,78.1H487.15l-4-15.29H461l-4,15.29H435.12Zm19.24,48.51-7.25-27.5-7.26,27.5Z"/><path class="cls-2" d="M1.5,40.33a38.1,38.1,0,0,1,2.7-14,39.49,39.49,0,0,1,7.86-12.48,38.33,38.33,0,0,1,12.6-9A40.21,40.21,0,0,1,41.43,1.5,39.52,39.52,0,0,1,61,6.17,30.43,30.43,0,0,1,73.44,18.55L57.05,30.21a13,13,0,0,0-4.13-5.94,16,16,0,0,0-5.83-2.91,23.48,23.48,0,0,0-6.1-.83,16.56,16.56,0,0,0-8,1.81,16.33,16.33,0,0,0-5.5,4.79,21,21,0,0,0-3.18,6.6,26,26,0,0,0-1,7.26,25.11,25.11,0,0,0,1.21,7.81A21.23,21.23,0,0,0,28,55.46,16.4,16.4,0,0,0,33.67,60a16.87,16.87,0,0,0,7.54,1.65,20.53,20.53,0,0,0,6-.94,16.1,16.1,0,0,0,5.61-3,13,13,0,0,0,3.85-5.61L74.21,62.55a23,23,0,0,1-7.7,9.79A40,40,0,0,1,54.3,78.55,45,45,0,0,1,40.77,80.7a36.17,36.17,0,0,1-15.89-3.47A39.91,39.91,0,0,1,12.45,68,42.77,42.77,0,0,1,4.36,55,39.46,39.46,0,0,1,1.5,40.33Z"/><path class="cls-2" d="M115.9,80.7a38.16,38.16,0,0,1-16.06-3.08,29.12,29.12,0,0,1-11-8.45,35.45,35.45,0,0,1-6.21-12.36,53.47,53.47,0,0,1-2-14.67V2.05h21.45V42.13a34.43,34.43,0,0,0,.77,7.35,20.57,20.57,0,0,0,2.42,6.26,12.66,12.66,0,0,0,4.23,4.34,11.9,11.9,0,0,0,6.33,1.59,12.39,12.39,0,0,0,6.49-1.59,11.89,11.89,0,0,0,4.23-4.39A22.14,22.14,0,0,0,129,49.37a33.88,33.88,0,0,0,.77-7.24V2.05h21.45V42.14a51.67,51.67,0,0,1-2.15,15.16,35.86,35.86,0,0,1-6.43,12.31,28.67,28.67,0,0,1-10.95,8.18A39.13,39.13,0,0,1,115.9,80.7Z"/><path class="cls-2" d="M163.53,80.15V2.05H185v59.4H220.4v18.7Z"/><path class="cls-2" d="M278.26,20.75H255.82v59.4H234.37V20.75H211.82V2.05h66.44Z"/><path class="cls-2" d="M320.17,80.7a38.13,38.13,0,0,1-16.06-3.08,29,29,0,0,1-10.95-8.45A35.45,35.45,0,0,1,287,56.81a53.47,53.47,0,0,1-2-14.67V2.05h21.45V42.13a33.8,33.8,0,0,0,.77,7.35,20.57,20.57,0,0,0,2.42,6.26,12.66,12.66,0,0,0,4.23,4.34,11.87,11.87,0,0,0,6.33,1.59,12.39,12.39,0,0,0,6.49-1.59,11.89,11.89,0,0,0,4.23-4.39,22.14,22.14,0,0,0,2.37-6.32,33.88,33.88,0,0,0,.77-7.24V2.05h21.45V42.14a51.67,51.67,0,0,1-2.15,15.16,35.86,35.86,0,0,1-6.43,12.31A28.67,28.67,0,0,1,336,77.79,39.17,39.17,0,0,1,320.17,80.7Z"/><path class="cls-2" d="M367.8,80.15V2.05h35.86a24.22,24.22,0,0,1,10.56,2.31,26.65,26.65,0,0,1,8.36,6.21A29.06,29.06,0,0,1,428,19.32,26.18,26.18,0,0,1,430,29.11a28.69,28.69,0,0,1-1.32,8.69,26.58,26.58,0,0,1-3.85,7.65,27.29,27.29,0,0,1-6,6l16.5,28.71H411.69l-13.75-24h-8.69v24Zm21.45-42.68h13.53a4,4,0,0,0,2.53-1,7.58,7.58,0,0,0,2-2.86,11.14,11.14,0,0,0,.83-4.51,9.86,9.86,0,0,0-.94-4.57,7.65,7.65,0,0,0-2.31-2.8,4.62,4.62,0,0,0-2.69-1h-13Z"/><path class="cls-2" d="M460.09,2.05h24l24.86,78.1H487.15l-4-15.29H461l-4,15.29H435.12Zm19.24,48.51-7.25-27.5-7.26,27.5Z"/></g></g></svg>