<svg xmlns="http://www.w3.org/2000/svg" viewBox="0 0 1068.01 214.2"><defs><style>.cls-1{fill:none;stroke:#000;stroke-miterlimit:10;stroke-width:3px;}.cls-2{fill:#eac852;}</style></defs><g id="Camada_2" data-name="Camada 2"><g id="Camada_1-2" data-name="Camada 1"><path class="cls-1" d="M1.5,80.15V2.05h30q13,0,21.72,5.23A33.85,33.85,0,0,1,66.46,21.36,43.15,43.15,0,0,1,70.91,41q0,11.88-4.89,20.68A34.25,34.25,0,0,1,52.27,75.31q-8.87,4.84-20.74,4.84ZM49.13,41A25.3,25.3,0,0,0,47,30.38a16.16,16.16,0,0,0-6-7.1,17.16,17.16,0,0,0-9.46-2.53H23v40.7h8.58A16.57,16.57,0,0,0,41,58.81a16.9,16.9,0,0,0,6-7.31A25.55,25.55,0,0,0,49.13,41Z"/><path class="cls-1" d="M135.92,61.45v18.7H80.26V2.05h54.67v18.7H101.71v11h28.38V49.13H101.71V61.45Z"/><path class="cls-1" d="M193.23,27.68a68.49,68.49,0,0,0-6.82-3.57,56.3,56.3,0,0,0-6.71-2.48,24.72,24.72,0,0,0-7.15-1.1,10.15,10.15,0,0,0-4.51.87,3,3,0,0,0-1.76,3A3.66,3.66,0,0,0,168,27.51a18.77,18.77,0,0,0,5,2.18c2.17.65,4.75,1.45,7.76,2.39a68.28,68.28,0,0,1,12.54,5,21.68,21.68,0,0,1,8.14,7.25q2.85,4.41,2.86,11.72a24.7,24.7,0,0,1-2.53,11.71A20.48,20.48,0,0,1,195,75.36a29.7,29.7,0,0,1-9.57,4.09,46.86,46.86,0,0,1-10.78,1.25,62.27,62.27,0,0,1-11.72-1.16,78.48,78.48,0,0,1-11.82-3.18,62.44,62.44,0,0,1-10.45-4.79l9.24-18.81a80.58,80.58,0,0,0,8,4.29A62.32,62.32,0,0,0,166,60a31.43,31.43,0,0,0,9,1.32c2.34,0,4-.3,4.89-.89a2.71,2.71,0,0,0,1.38-2.36,3.88,3.88,0,0,0-2.42-3.55,36.65,36.65,0,0,0-6.33-2.41q-3.9-1.14-8.63-2.67a48.73,48.73,0,0,1-11.22-5.19,18.66,18.66,0,0,1-6.49-6.88,20.53,20.53,0,0,1-2.09-9.67q0-8.64,4.07-14.42a25.9,25.9,0,0,1,10.72-8.8,34.53,34.53,0,0,1,14.36-3,43.91,43.91,0,0,1,11,1.38,70.35,70.35,0,0,1,10,3.35q4.68,2,8.2,3.74Z"/><path class="cls-1" d="M269.46,61.45v18.7H213.8V2.05h54.67v18.7H235.25v11h28.38V49.13H235.25V61.45Z"/><path class="cls-1" d="M300.92,41.76V80.15H279.46V2.05h16.72l31.35,39.71V2.05H349v78.1H331.93Z"/><path class="cls-1" d="M377.47,2.05,392.76,55.4,407.83,2.05h22.55l-26.95,78.1H382.09L354.81,2.05Z"/><path class="cls-1" d="M468.44,80.7a38.19,38.19,0,0,1-16.17-3.35,39.18,39.18,0,0,1-12.48-9,40.83,40.83,0,0,1-8-12.76A39.67,39.67,0,0,1,429,40.88a37.79,37.79,0,0,1,3-14.85,41,41,0,0,1,8.31-12.59,38.84,38.84,0,0,1,12.65-8.75,39.51,39.51,0,0,1,16-3.19,37.77,37.77,0,0,1,28.6,12.43,41.93,41.93,0,0,1,8,12.82,39.27,39.27,0,0,1,2.8,14.57,38.21,38.21,0,0,1-2.91,14.74,40.13,40.13,0,0,1-20.85,21.4A39,39,0,0,1,468.44,80.7ZM450.73,41.1a26.75,26.75,0,0,0,1.1,7.65,20.92,20.92,0,0,0,3.3,6.59A15.72,15.72,0,0,0,460.69,60a19.31,19.31,0,0,0,16-.05,15.2,15.2,0,0,0,5.56-4.79,21.8,21.8,0,0,0,3.19-6.7,27.78,27.78,0,0,0,1-7.54,25.81,25.81,0,0,0-1.1-7.59,20.56,20.56,0,0,0-3.3-6.54,15,15,0,0,0-5.61-4.57,18,18,0,0,0-7.92-1.65,17,17,0,0,0-8,1.76A16.4,16.4,0,0,0,455,27a19.89,19.89,0,0,0-3.24,6.61A27.28,27.28,0,0,0,450.73,41.1Z"/><path class="cls-1" d="M517.39,80.15V2.05h21.45v59.4h35.42v18.7Z"/><path class="cls-1" d="M587.79,2.05,603.08,55.4,618.15,2.05H640.7l-27,78.1H592.41L565.13,2.05Z"/><path class="cls-1" d="M646.64,80.15V2.05h21.45v78.1Z"/><path class="cls-1" d="M740.58,80.15V39L727.49,67.94H716.05L703,39V80.15H681.51V2.05h23.43l16.83,36.74L738.71,2.05H762v78.1Z"/><path class="cls-1" d="M831.11,61.45v18.7H775.45V2.05h54.67v18.7H796.9v11h28.38V49.13H796.9V61.45Z"/><path class="cls-1" d="M862.57,41.76V80.15H841.12V2.05h16.72l31.35,39.71V2.05h21.45v78.1h-17Z"/><path class="cls-1" d="M984.89,20.75H962.45v59.4H941V20.75H918.45V2.05h66.44Z"/><path class="cls-1" d="M1026.69,80.7a38.19,38.19,0,0,1-16.17-3.35,39.18,39.18,0,0,1-12.48-9,41,41,0,0,1-8-12.76,39.66,39.66,0,0,1-2.8-14.69,37.79,37.79,0,0,1,3-14.85,41.19,41.19,0,0,1,8.3-12.59,39,39,0,0,1,12.65-8.75,39.6,39.6,0,0,1,16-3.19,37.77,37.77,0,0,1,28.6,12.43,42.13,42.13,0,0,1,8,12.82,39.27,39.27,0,0,1,2.8,14.57,38,38,0,0,1-2.92,14.74,40.31,40.31,0,0,1-8.25,12.6,39.83,39.83,0,0,1-12.59,8.8A39,39,0,0,1,1026.69,80.7ZM1009,41.1a26.75,26.75,0,0,0,1.1,7.65,20.51,20.51,0,0,0,3.3,6.59,15.78,15.78,0,0,0,5.55,4.62,19.34,19.34,0,0,0,16-.05,15.28,15.28,0,0,0,5.56-4.79,21.77,21.77,0,0,0,3.18-6.7,27.4,27.4,0,0,0,1-7.54,26.14,26.14,0,0,0-1.1-7.59,20.56,20.56,0,0,0-3.3-6.54,15.21,15.21,0,0,0-5.61-4.57,18,18,0,0,0-7.92-1.65,17,17,0,0,0-8,1.76,16.4,16.4,0,0,0-5.56,4.67,19.7,19.7,0,0,0-3.24,6.61A27.28,27.28,0,0,0,1009,41.1Z"/><path class="cls-1" d="M255.1,193.45v18.7H199.44v-78.1h54.67v18.7H220.89v11h28.38v17.38H220.89v12.32Z"/><path class="cls-1" d="M259.61,172.33a38,38,0,0,1,2.7-14,39.42,39.42,0,0,1,7.86-12.49,38.33,38.33,0,0,1,12.6-9,40.24,40.24,0,0,1,16.77-3.36,39.42,39.42,0,0,1,19.58,4.68,30.35,30.35,0,0,1,12.43,12.37l-16.39,11.66a13,13,0,0,0-4.12-5.94,16.22,16.22,0,0,0-5.83-2.91,24,24,0,0,0-6.11-.83,16.49,16.49,0,0,0-8,1.82,16.12,16.12,0,0,0-5.5,4.78,21,21,0,0,0-3.19,6.6,26,26,0,0,0-1.05,7.26,25.11,25.11,0,0,0,1.21,7.81,21.23,21.23,0,0,0,3.52,6.66,16.35,16.35,0,0,0,5.67,4.56,16.79,16.79,0,0,0,7.53,1.65,20.85,20.85,0,0,0,6.05-.93,16.29,16.29,0,0,0,5.61-3,13,13,0,0,0,3.85-5.61l17.49,10.45a23,23,0,0,1-7.7,9.79,40.22,40.22,0,0,1-12.21,6.22,44.93,44.93,0,0,1-13.53,2.14A36.31,36.31,0,0,1,283,209.24,39.78,39.78,0,0,1,270.56,200a42.65,42.65,0,0,1-8.09-13A39.46,39.46,0,0,1,259.61,172.33Z"/><path class="cls-1" d="M373.9,212.7a38.19,38.19,0,0,1-16.17-3.35,39.18,39.18,0,0,1-12.48-9,40.83,40.83,0,0,1-8-12.76,39.67,39.67,0,0,1-2.81-14.69,37.79,37.79,0,0,1,3-14.85,41,41,0,0,1,8.31-12.59,38.74,38.74,0,0,1,12.65-8.75,39.51,39.51,0,0,1,16-3.19,37.77,37.77,0,0,1,28.6,12.43,41.93,41.93,0,0,1,8,12.82,39.27,39.27,0,0,1,2.8,14.57,38.21,38.21,0,0,1-2.91,14.74,40.67,40.67,0,0,1-8.25,12.6,40,40,0,0,1-12.6,8.8A39,39,0,0,1,373.9,212.7Zm-17.71-39.6a26.75,26.75,0,0,0,1.1,7.65,20.66,20.66,0,0,0,3.3,6.6,15.94,15.94,0,0,0,5.56,4.62,19.36,19.36,0,0,0,16-.06,15.28,15.28,0,0,0,5.56-4.79,21.8,21.8,0,0,0,3.19-6.7,27.78,27.78,0,0,0,1-7.54,26.14,26.14,0,0,0-1.1-7.59,20.56,20.56,0,0,0-3.3-6.54,15.21,15.21,0,0,0-5.61-4.57,18,18,0,0,0-7.92-1.65,17,17,0,0,0-8,1.76,16.32,16.32,0,0,0-5.56,4.68,19.56,19.56,0,0,0-3.24,6.6A27.28,27.28,0,0,0,356.19,173.1Z"/><path class="cls-1" d="M444.3,173.76v38.39H422.85v-78.1h16.72l31.35,39.71V134.05h21.45v78.1H475.32Z"/><path class="cls-1" d="M541,212.7a38.19,38.19,0,0,1-16.17-3.35,39.18,39.18,0,0,1-12.48-9,40.83,40.83,0,0,1-8-12.76,39.67,39.67,0,0,1-2.81-14.69,37.79,37.79,0,0,1,3-14.85,41,41,0,0,1,8.31-12.59,38.74,38.74,0,0,1,12.65-8.75,39.51,39.51,0,0,1,16-3.19A37.77,37.77,0,0,1,570,145.93a41.93,41.93,0,0,1,8,12.82,39.27,39.27,0,0,1,2.8,14.57,38.21,38.21,0,0,1-2.91,14.74,40.67,40.67,0,0,1-8.25,12.6,40,40,0,0,1-12.6,8.8A39,39,0,0,1,541,212.7Zm-19.47-88.44L534,111.61h15l12.43,12.65-10.56,4.62L541.43,122l-9.35,6.93Zm1.76,48.84a26.75,26.75,0,0,0,1.1,7.65,20.66,20.66,0,0,0,3.3,6.6,15.94,15.94,0,0,0,5.56,4.62,19.36,19.36,0,0,0,16-.06,15.28,15.28,0,0,0,5.56-4.79,21.8,21.8,0,0,0,3.19-6.7,27.78,27.78,0,0,0,1-7.54,26.14,26.14,0,0,0-1.1-7.59,20.56,20.56,0,0,0-3.3-6.54,15.21,15.21,0,0,0-5.61-4.57,18,18,0,0,0-7.92-1.65,17,17,0,0,0-8,1.76,16.32,16.32,0,0,0-5.56,4.68,19.56,19.56,0,0,0-3.24,6.6A27.28,27.28,0,0,0,523.28,173.1Z"/><path class="cls-1" d="M649,212.15V171l-13.09,28.93H624.48L611.39,171v41.14H589.94v-78.1h23.43l16.83,36.74,16.94-36.74h23.32v78.1Z"/><path class="cls-1" d="M683.88,212.15v-78.1h21.45v78.1Z"/><path class="cls-1" d="M714.46,172.33a38.21,38.21,0,0,1,2.69-14A39.63,39.63,0,0,1,725,145.82a38.18,38.18,0,0,1,12.59-9,40.26,40.26,0,0,1,16.78-3.36A39.45,39.45,0,0,1,774,138.18a30.41,30.41,0,0,1,12.43,12.37L770,162.21a13,13,0,0,0-4.13-5.94,16.14,16.14,0,0,0-5.83-2.91,23.92,23.92,0,0,0-6.1-.83,16.56,16.56,0,0,0-8,1.82,16.21,16.21,0,0,0-5.5,4.78,21.26,21.26,0,0,0-3.19,6.6,26.38,26.38,0,0,0-1,7.26,25.11,25.11,0,0,0,1.21,7.81,21,21,0,0,0,3.52,6.66,16.4,16.4,0,0,0,5.66,4.56,16.87,16.87,0,0,0,7.54,1.65,20.9,20.9,0,0,0,6.05-.93,16.29,16.29,0,0,0,5.61-3,13,13,0,0,0,3.85-5.61l17.49,10.45a23,23,0,0,1-7.7,9.79,40.45,40.45,0,0,1-12.21,6.22,44.93,44.93,0,0,1-13.53,2.14,36.35,36.35,0,0,1-15.9-3.46A40,40,0,0,1,725.4,200a42.62,42.62,0,0,1-8.08-13A39.46,39.46,0,0,1,714.46,172.33Z"/><path class="cls-1" d="M828.75,212.7a38.19,38.19,0,0,1-16.17-3.35,39.34,39.34,0,0,1-12.49-9,41,41,0,0,1-8-12.76,39.66,39.66,0,0,1-2.8-14.69,37.79,37.79,0,0,1,3-14.85,41.19,41.19,0,0,1,8.3-12.59,39,39,0,0,1,12.65-8.75,39.6,39.6,0,0,1,16-3.19,37.77,37.77,0,0,1,28.6,12.43,41.9,41.9,0,0,1,8,12.82,39.28,39.28,0,0,1,2.81,14.57,38,38,0,0,1-2.92,14.74,40.31,40.31,0,0,1-8.25,12.6,39.83,39.83,0,0,1-12.59,8.8A39,39,0,0,1,828.75,212.7ZM811,173.1a26.75,26.75,0,0,0,1.1,7.65,20.66,20.66,0,0,0,3.3,6.6A16,16,0,0,0,821,192a17.52,17.52,0,0,0,8,1.7,17.32,17.32,0,0,0,8-1.76,15.25,15.25,0,0,0,5.55-4.79,21.57,21.57,0,0,0,3.19-6.7,27.4,27.4,0,0,0,1-7.54,26.14,26.14,0,0,0-1.1-7.59,20.56,20.56,0,0,0-3.3-6.54,15.21,15.21,0,0,0-5.61-4.57,18,18,0,0,0-7.92-1.65,17,17,0,0,0-8,1.76,16.28,16.28,0,0,0-5.55,4.68,19.77,19.77,0,0,0-3.25,6.6A27.65,27.65,0,0,0,811,173.1Z"/><path class="cls-2" d="M1.5,80.15V2.05h30q13,0,21.72,5.23A33.85,33.85,0,0,1,66.46,21.36,43.15,43.15,0,0,1,70.91,41q0,11.88-4.89,20.68A34.25,34.25,0,0,1,52.27,75.31q-8.87,4.84-20.74,4.84ZM49.13,41A25.3,25.3,0,0,0,47,30.38a16.16,16.16,0,0,0-6-7.1,17.16,17.16,0,0,0-9.46-2.53H23v40.7h8.58A16.57,16.57,0,0,0,41,58.81a16.9,16.9,0,0,0,6-7.31A25.55,25.55,0,0,0,49.13,41Z"/><path class="cls-2" d="M135.92,61.45v18.7H80.26V2.05h54.67v18.7H101.71v11h28.38V49.13H101.71V61.45Z"/><path class="cls-2" d="M193.23,27.68a68.49,68.49,0,0,0-6.82-3.57,56.3,56.3,0,0,0-6.71-2.48,24.72,24.72,0,0,0-7.15-1.1,10.15,10.15,0,0,0-4.51.87,3,3,0,0,0-1.76,3A3.66,3.66,0,0,0,168,27.51a18.77,18.77,0,0,0,5,2.18c2.17.65,4.75,1.45,7.76,2.39a68.28,68.28,0,0,1,12.54,5,21.68,21.68,0,0,1,8.14,7.25q2.85,4.41,2.86,11.72a24.7,24.7,0,0,1-2.53,11.71A20.48,20.48,0,0,1,195,75.36a29.7,29.7,0,0,1-9.57,4.09,46.86,46.86,0,0,1-10.78,1.25,62.27,62.27,0,0,1-11.72-1.16,78.48,78.48,0,0,1-11.82-3.18,62.44,62.44,0,0,1-10.45-4.79l9.24-18.81a80.58,80.58,0,0,0,8,4.29A62.32,62.32,0,0,0,166,60a31.43,31.43,0,0,0,9,1.32c2.34,0,4-.3,4.89-.89a2.71,2.71,0,0,0,1.38-2.36,3.88,3.88,0,0,0-2.42-3.55,36.65,36.65,0,0,0-6.33-2.41q-3.9-1.14-8.63-2.67a48.73,48.73,0,0,1-11.22-5.19,18.66,18.66,0,0,1-6.49-6.88,20.53,20.53,0,0,1-2.09-9.67q0-8.64,4.07-14.42a25.9,25.9,0,0,1,10.72-8.8,34.53,34.53,0,0,1,14.36-3,43.91,43.91,0,0,1,11,1.38,70.35,70.35,0,0,1,10,3.35q4.68,2,8.2,3.74Z"/><path class="cls-2" d="M269.46,61.45v18.7H213.8V2.05h54.67v18.7H235.25v11h28.38V49.13H235.25V61.45Z"/><path class="cls-2" d="M300.92,41.76V80.15H279.46V2.05h16.72l31.35,39.71V2.05H349v78.1H331.93Z"/><path class="cls-2" d="M377.47,2.05,392.76,55.4,407.83,2.05h22.55l-26.95,78.1H382.09L354.81,2.05Z"/><path class="cls-2" d="M468.44,80.7a38.19,38.19,0,0,1-16.17-3.35,39.18,39.18,0,0,1-12.48-9,40.83,40.83,0,0,1-8-12.76A39.67,39.67,0,0,1,429,40.88a37.79,37.79,0,0,1,3-14.85,41,41,0,0,1,8.31-12.59,38.84,38.84,0,0,1,12.65-8.75,39.51,39.51,0,0,1,16-3.19,37.77,37.77,0,0,1,28.6,12.43,41.93,41.93,0,0,1,8,12.82,39.27,39.27,0,0,1,2.8,14.57,38.21,38.21,0,0,1-2.91,14.74,40.13,40.13,0,0,1-20.85,21.4A39,39,0,0,1,468.44,80.7ZM450.73,41.1a26.75,26.75,0,0,0,1.1,7.65,20.92,20.92,0,0,0,3.3,6.59A15.72,15.72,0,0,0,460.69,60a19.31,19.31,0,0,0,16-.05,15.2,15.2,0,0,0,5.56-4.79,21.8,21.8,0,0,0,3.19-6.7,27.78,27.78,0,0,0,1-7.54,25.81,25.81,0,0,0-1.1-7.59,20.56,20.56,0,0,0-3.3-6.54,15,15,0,0,0-5.61-4.57,18,18,0,0,0-7.92-1.65,17,17,0,0,0-8,1.76A16.4,16.4,0,0,0,455,27a19.89,19.89,0,0,0-3.24,6.61A27.28,27.28,0,0,0,450.73,41.1Z"/><path class="cls-2" d="M517.39,80.15V2.05h21.45v59.4h35.42v18.7Z"/><path class="cls-2" d="M587.79,2.05,603.08,55.4,618.15,2.05H640.7l-27,78.1H592.41L565.13,2.05Z"/><path class="cls-2" d="M646.64,80.15V2.05h21.45v78.1Z"/><path class="cls-2" d="M740.58,80.15V39L727.49,67.94H716.05L703,39V80.15H681.51V2.05h23.43l16.83,36.74L738.71,2.05H762v78.1Z"/><path class="cls-2" d="M831.11,61.45v18.7H775.45V2.05h54.67v18.7H796.9v11h28.38V49.13H796.9V61.45Z"/><path class="cls-2" d="M862.57,41.76V80.15H841.12V2.05h16.72l31.35,39.71V2.05h21.45v78.1h-17Z"/><path class="cls-2" d="M984.89,20.75H962.45v59.4H941V20.75H918.45V2.05h66.44Z"/><path class="cls-2" d="M1026.69,80.7a38.19,38.19,0,0,1-16.17-3.35,39.18,39.18,0,0,1-12.48-9,41,41,0,0,1-8-12.76,39.66,39.66,0,0,1-2.8-14.69,37.79,37.79,0,0,1,3-14.85,41.19,41.19,0,0,1,8.3-12.59,39,39,0,0,1,12.65-8.75,39.6,39.6,0,0,1,16-3.19,37.77,37.77,0,0,1,28.6,12.43,42.13,42.13,0,0,1,8,12.82,39.27,39.27,0,0,1,2.8,14.57,38,38,0,0,1-2.92,14.74,40.31,40.31,0,0,1-8.25,12.6,39.83,39.83,0,0,1-12.59,8.8A39,39,0,0,1,1026.69,80.7ZM1009,41.1a26.75,26.75,0,0,0,1.1,7.65,20.51,20.51,0,0,0,3.3,6.59,15.78,15.78,0,0,0,5.55,4.62,19.34,19.34,0,0,0,16-.05,15.28,15.28,0,0,0,5.56-4.79,21.77,21.77,0,0,0,3.18-6.7,27.4,27.4,0,0,0,1-7.54,26.14,26.14,0,0,0-1.1-7.59,20.56,20.56,0,0,0-3.3-6.54,15.21,15.21,0,0,0-5.61-4.57,18,18,0,0,0-7.92-1.65,17,17,0,0,0-8,1.76,16.4,16.4,0,0,0-5.56,4.67,19.7,19.7,0,0,0-3.24,6.61A27.28,27.28,0,0,0,1009,41.1Z"/><path class="cls-2" d="M255.1,193.45v18.7H199.44v-78.1h54.67v18.7H220.89v11h28.38v17.38H220.89v12.32Z"/><path class="cls-2" d="M259.61,172.33a38,38,0,0,1,2.7-14,39.42,39.42,0,0,1,7.86-12.49,38.33,38.33,0,0,1,12.6-9,40.24,40.24,0,0,1,16.77-3.36,39.42,39.42,0,0,1,19.58,4.68,30.35,30.35,0,0,1,12.43,12.37l-16.39,11.66a13,13,0,0,0-4.12-5.94,16.22,16.22,0,0,0-5.83-2.91,24,24,0,0,0-6.11-.83,16.49,16.49,0,0,0-8,1.82,16.12,16.12,0,0,0-5.5,4.78,21,21,0,0,0-3.19,6.6,26,26,0,0,0-1.05,7.26,25.11,25.11,0,0,0,1.21,7.81,21.23,21.23,0,0,0,3.52,6.66,16.35,16.35,0,0,0,5.67,4.56,16.79,16.79,0,0,0,7.53,1.65,20.85,20.85,0,0,0,6.05-.93,16.29,16.29,0,0,0,5.61-3,13,13,0,0,0,3.85-5.61l17.49,10.45a23,23,0,0,1-7.7,9.79,40.22,40.22,0,0,1-12.21,6.22,44.93,44.93,0,0,1-13.53,2.14A36.31,36.31,0,0,1,283,209.24,39.78,39.78,0,0,1,270.56,200a42.65,42.65,0,0,1-8.09-13A39.46,39.46,0,0,1,259.61,172.33Z"/><path class="cls-2" d="M373.9,212.7a38.19,38.19,0,0,1-16.17-3.35,39.18,39.18,0,0,1-12.48-9,40.83,40.83,0,0,1-8-12.76,39.67,39.67,0,0,1-2.81-14.69,37.79,37.79,0,0,1,3-14.85,41,41,0,0,1,8.31-12.59,38.74,38.74,0,0,1,12.65-8.75,39.51,39.51,0,0,1,16-3.19,37.77,37.77,0,0,1,28.6,12.43,41.93,41.93,0,0,1,8,12.82,39.27,39.27,0,0,1,2.8,14.57,38.21,38.21,0,0,1-2.91,14.74,40.67,40.67,0,0,1-8.25,12.6,40,40,0,0,1-12.6,8.8A39,39,0,0,1,373.9,212.7Zm-17.71-39.6a26.75,26.75,0,0,0,1.1,7.65,20.66,20.66,0,0,0,3.3,6.6,15.94,15.94,0,0,0,5.56,4.62,19.36,19.36,0,0,0,16-.06,15.28,15.28,0,0,0,5.56-4.79,21.8,21.8,0,0,0,3.19-6.7,27.78,27.78,0,0,0,1-7.54,26.14,26.14,0,0,0-1.1-7.59,20.56,20.56,0,0,0-3.3-6.54,15.21,15.21,0,0,0-5.61-4.57,18,18,0,0,0-7.92-1.65,17,17,0,0,0-8,1.76,16.32,16.32,0,0,0-5.56,4.68,19.56,19.56,0,0,0-3.24,6.6A27.28,27.28,0,0,0,356.19,173.1Z"/><path class="cls-2" d="M444.3,173.76v38.39H422.85v-78.1h16.72l31.35,39.71V134.05h21.45v78.1H475.32Z"/><path class="cls-2" d="M541,212.7a38.19,38.19,0,0,1-16.17-3.35,39.18,39.18,0,0,1-12.48-9,40.83,40.83,0,0,1-8-12.76,39.67,39.67,0,0,1-2.81-14.69,37.79,37.79,0,0,1,3-14.85,41,41,0,0,1,8.31-12.59,38.74,38.74,0,0,1,12.65-8.75,39.51,39.51,0,0,1,16-3.19A37.77,37.77,0,0,1,570,145.93a41.93,41.93,0,0,1,8,12.82,39.27,39.27,0,0,1,2.8,14.57,38.21,38.21,0,0,1-2.91,14.74,40.67,40.67,0,0,1-8.25,12.6,40,40,0,0,1-12.6,8.8A39,39,0,0,1,541,212.7Zm-19.47-88.44L534,111.61h15l12.43,12.65-10.56,4.62L541.43,122l-9.35,6.93Zm1.76,48.84a26.75,26.75,0,0,0,1.1,7.65,20.66,20.66,0,0,0,3.3,6.6,15.94,15.94,0,0,0,5.56,4.62,19.36,19.36,0,0,0,16-.06,15.28,15.28,0,0,0,5.56-4.79,21.8,21.8,0,0,0,3.19-6.7,27.78,27.78,0,0,0,1-7.54,26.14,26.14,0,0,0-1.1-7.59,20.56,20.56,0,0,0-3.3-6.54,15.21,15.21,0,0,0-5.61-4.57,18,18,0,0,0-7.92-1.65,17,17,0,0,0-8,1.76,16.32,16.32,0,0,0-5.56,4.68,19.56,19.56,0,0,0-3.24,6.6A27.28,27.28,0,0,0,523.28,173.1Z"/><path class="cls-2" d="M649,212.15V171l-13.09,28.93H624.48L611.39,171v41.14H589.94v-78.1h23.43l16.83,36.74,16.94-36.74h23.32v78.1Z"/><path class="cls-2" d="M683.88,212.15v-78.1h21.45v78.1Z"/><path class="cls-2" d="M714.46,172.33a38.21,38.21,0,0,1,2.69-14A39.63,39.63,0,0,1,725,145.82a38.18,38.18,0,0,1,12.59-9,40.26,40.26,0,0,1,16.78-3.36A39.45,39.45,0,0,1,774,138.18a30.41,30.41,0,0,1,12.43,12.37L770,162.21a13,13,0,0,0-4.13-5.94,16.14,16.14,0,0,0-5.83-2.91,23.92,23.92,0,0,0-6.1-.83,16.56,16.56,0,0,0-8,1.82,16.21,16.21,0,0,0-5.5,4.78,21.26,21.26,0,0,0-3.19,6.6,26.38,26.38,0,0,0-1,7.26,25.11,25.11,0,0,0,1.21,7.81,21,21,0,0,0,3.52,6.66,16.4,16.4,0,0,0,5.66,4.56,16.87,16.87,0,0,0,7.54,1.65,20.9,20.9,0,0,0,6.05-.93,16.29,16.29,0,0,0,5.61-3,13,13,0,0,0,3.85-5.61l17.49,10.45a23,23,0,0,1-7.7,9.79,40.45,40.45,0,0,1-12.21,6.22,44.93,44.93,0,0,1-13.53,2.14,36.35,36.35,0,0,1-15.9-3.46A40,40,0,0,1,725.4,200a42.62,42.62,0,0,1-8.08-13A39.46,39.46,0,0,1,714.46,172.33Z"/><path class="cls-2" d="M828.75,212.7a38.19,38.19,0,0,1-16.17-3.35,39.34,39.34,0,0,1-12.49-9,41,41,0,0,1-8-12.76,39.66,39.66,0,0,1-2.8-14.69,37.79,37.79,0,0,1,3-14.85,41.19,41.19,0,0,1,8.3-12.59,39,39,0,0,1,12.65-8.75,39.6,39.6,0,0,1,16-3.19,37.77,37.77,0,0,1,28.6,12.43,41.9,41.9,0,0,1,8,12.82,39.28,39.28,0,0,1,2.81,14.57,38,38,0,0,1-2.92,14.74,40.31,40.31,0,0,1-8.25,12.6,39.83,39.83,0,0,1-12.59,8.8A39,39,0,0,1,828.75,212.7ZM811,173.1a26.75,26.75,0,0,0,1.1,7.65,20.66,20.66,0,0,0,3.3,6.6A16,16,0,0,0,821,192a17.52,17.52,0,0,0,8,1.7,17.32,17.32,0,0,0,8-1.76,15.25,15.25,0,0,0,5.55-4.79,21.57,21.57,0,0,0,3.19-6.7,27.4,27.4,0,0,0,1-7.54,26.14,26.14,0,0,0-1.1-7.59,20.56,20.56,0,0,0-3.3-6.54,15.21,15.21,0,0,0-5.61-4.57,18,18,0,0,0-7.92-1.65,17,17,0,0,0-8,1.76,16.28,16.28,0,0,0-5.55,4.68,19.77,19.77,0,0,0-3.25,6.6A27.65,27.65,0,0,0,811,173.1Z"/></g></g></svg>