<svg xmlns="http://www.w3.org/2000/svg" viewBox="0 0 953.72 214.2"><defs><style>.cls-1{fill:none;stroke:#000;stroke-miterlimit:10;stroke-width:3px;}.cls-2{fill:#eac852;}</style></defs><g id="Camada_2" data-name="Camada 2"><g id="Camada_1-2" data-name="Camada 1"><path class="cls-1" d="M137,80.15V2.05h30q13,0,21.73,5.23a33.82,33.82,0,0,1,13.2,14.08A43,43,0,0,1,206.37,41q0,11.88-4.89,20.68a34.25,34.25,0,0,1-13.75,13.64q-8.86,4.84-20.74,4.84ZM184.59,41a25.14,25.14,0,0,0-2.09-10.61,16.16,16.16,0,0,0-6.05-7.1A17.16,17.16,0,0,0,167,20.75h-8.58v40.7H167a16.62,16.62,0,0,0,9.52-2.64,17,17,0,0,0,6-7.31A25.38,25.38,0,0,0,184.59,41Z"/><path class="cls-1" d="M215.72,80.15V2.05h21.45v78.1Z"/><path class="cls-1" d="M250.59,80.15V2.05h35.86A24.22,24.22,0,0,1,297,4.36a26.54,26.54,0,0,1,8.36,6.21,29.09,29.09,0,0,1,5.45,8.75,26.37,26.37,0,0,1,1.92,9.79,28.69,28.69,0,0,1-1.32,8.69,26.33,26.33,0,0,1-3.85,7.65,27.08,27.08,0,0,1-6.05,6L318,80.15H294.48l-13.75-24H272v24ZM272,37.47h13.53a4,4,0,0,0,2.53-1,7.48,7.48,0,0,0,2-2.86,11,11,0,0,0,.83-4.51,10,10,0,0,0-.93-4.57,7.77,7.77,0,0,0-2.32-2.8,4.59,4.59,0,0,0-2.69-1H272Z"/><path class="cls-1" d="M380.5,61.45v18.7H324.84V2.05h54.67v18.7H346.29v11h28.38V49.13H346.29V61.45Z"/><path class="cls-1" d="M390.51,80.15V2.05H412v78.1Z"/><path class="cls-1" d="M486.21,20.75H463.77v59.4H442.32V20.75H419.77V2.05h66.44Z"/><path class="cls-1" d="M528,80.7a38.19,38.19,0,0,1-16.17-3.35,39.1,39.1,0,0,1-12.49-9,40.78,40.78,0,0,1-8-12.76,39.57,39.57,0,0,1-2.8-14.68,37.79,37.79,0,0,1,3-14.85,41,41,0,0,1,8.3-12.59,38.84,38.84,0,0,1,12.65-8.75,39.56,39.56,0,0,1,16-3.19,37.77,37.77,0,0,1,28.6,12.43,42.1,42.1,0,0,1,8,12.82,39.24,39.24,0,0,1,2.81,14.57,38.22,38.22,0,0,1-2.92,14.74,40.25,40.25,0,0,1-20.84,21.4A39,39,0,0,1,528,80.7ZM510.3,41.1a26.41,26.41,0,0,0,1.1,7.65,20.51,20.51,0,0,0,3.3,6.59A15.6,15.6,0,0,0,520.25,60a19.34,19.34,0,0,0,16-.05,15.25,15.25,0,0,0,5.55-4.79,21.8,21.8,0,0,0,3.19-6.7,27.4,27.4,0,0,0,1-7.54,26.14,26.14,0,0,0-1.1-7.59,21,21,0,0,0-3.3-6.54A15.21,15.21,0,0,0,536,22.18a18,18,0,0,0-7.92-1.65,17,17,0,0,0-8,1.76A16.27,16.27,0,0,0,514.59,27a20,20,0,0,0-3.25,6.6A27.39,27.39,0,0,0,510.3,41.1Z"/><path class="cls-1" d="M601.71,80.15V2.05h30q13,0,21.72,5.23a33.82,33.82,0,0,1,13.2,14.08A43,43,0,0,1,671.12,41q0,11.88-4.9,20.68a34.19,34.19,0,0,1-13.75,13.64q-8.85,4.84-20.73,4.84ZM649.33,41a25.3,25.3,0,0,0-2.08-10.61,16.29,16.29,0,0,0-6-7.1,17.18,17.18,0,0,0-9.46-2.53h-8.58v40.7h8.58a16.57,16.57,0,0,0,9.51-2.64,17,17,0,0,0,6-7.31A25.54,25.54,0,0,0,649.33,41Z"/><path class="cls-1" d="M715.66,80.7a38.19,38.19,0,0,1-16.17-3.35,39.06,39.06,0,0,1-12.48-9,40.78,40.78,0,0,1-8-12.76,39.58,39.58,0,0,1-2.81-14.68,37.79,37.79,0,0,1,3-14.85,41,41,0,0,1,8.31-12.59A38.74,38.74,0,0,1,700.1,4.69a39.55,39.55,0,0,1,16-3.19,37.77,37.77,0,0,1,28.6,12.43,41.93,41.93,0,0,1,8,12.82,39.23,39.23,0,0,1,2.8,14.57,38.21,38.21,0,0,1-2.91,14.74,40.33,40.33,0,0,1-8.25,12.59,39.86,39.86,0,0,1-12.6,8.81A39,39,0,0,1,715.66,80.7ZM698,41.1a26.75,26.75,0,0,0,1.1,7.65,20.92,20.92,0,0,0,3.3,6.59A15.72,15.72,0,0,0,707.91,60a19.31,19.31,0,0,0,16-.05,15.2,15.2,0,0,0,5.56-4.79,21.8,21.8,0,0,0,3.19-6.7,27.39,27.39,0,0,0,1-7.54,25.81,25.81,0,0,0-1.1-7.59,20.56,20.56,0,0,0-3.3-6.54,15,15,0,0,0-5.61-4.57,18,18,0,0,0-7.92-1.65,17,17,0,0,0-8,1.76A16.4,16.4,0,0,0,702.24,27a20.13,20.13,0,0,0-3.24,6.6A27.4,27.4,0,0,0,698,41.1Z"/><path class="cls-1" d="M811.25,27.68a66.37,66.37,0,0,0-6.82-3.57,55.67,55.67,0,0,0-6.71-2.48,24.66,24.66,0,0,0-7.15-1.1,10.21,10.21,0,0,0-4.51.87,3,3,0,0,0-1.76,3,3.68,3.68,0,0,0,1.76,3.16,19,19,0,0,0,5,2.18c2.16.65,4.75,1.45,7.75,2.39a68.28,68.28,0,0,1,12.54,5,21.6,21.6,0,0,1,8.14,7.25q2.87,4.41,2.86,11.71a24.6,24.6,0,0,1-2.53,11.72A20.39,20.39,0,0,1,813,75.36a29.7,29.7,0,0,1-9.57,4.09,46.79,46.79,0,0,1-10.78,1.25A63,63,0,0,1,781,79.54a78.93,78.93,0,0,1-11.83-3.18,63.19,63.19,0,0,1-10.45-4.79l9.24-18.81a81.69,81.69,0,0,0,8,4.29A62.49,62.49,0,0,0,784,60a31.41,31.41,0,0,0,9,1.32c2.35,0,4-.3,4.9-.89a2.7,2.7,0,0,0,1.37-2.36,3.87,3.87,0,0,0-2.42-3.55,36.19,36.19,0,0,0-6.32-2.41q-3.9-1.14-8.64-2.67a49.13,49.13,0,0,1-11.22-5.19,18.83,18.83,0,0,1-6.49-6.88,20.65,20.65,0,0,1-2.09-9.67q0-8.64,4.07-14.42a25.93,25.93,0,0,1,10.73-8.8,34.52,34.52,0,0,1,14.35-3,44,44,0,0,1,11.06,1.38,70.35,70.35,0,0,1,10,3.35q4.68,2,8.19,3.74Z"/><path class="cls-1" d="M67.94,152.75H45.5v59.4H24.05v-59.4H1.5v-18.7H67.94Z"/><path class="cls-1" d="M75.75,212.15v-78.1h35.86a24.22,24.22,0,0,1,10.56,2.31,26.65,26.65,0,0,1,8.36,6.21,28.86,28.86,0,0,1,5.44,8.75,26.18,26.18,0,0,1,1.93,9.79,28.69,28.69,0,0,1-1.32,8.69,26.33,26.33,0,0,1-3.85,7.65,26.87,26.87,0,0,1-6,6l16.5,28.71H119.64l-13.75-24H97.2v24ZM97.2,169.47h13.53a4,4,0,0,0,2.53-1,7.58,7.58,0,0,0,2-2.86,11.14,11.14,0,0,0,.83-4.51,9.89,9.89,0,0,0-.94-4.57,7.65,7.65,0,0,0-2.31-2.8,4.59,4.59,0,0,0-2.69-1h-13Z"/><path class="cls-1" d="M168,134.05h24l24.86,78.1H195.1l-4-15.29H169l-4,15.29H143.07Zm19.25,48.51L180,155.06l-7.26,27.5Z"/><path class="cls-1" d="M289.81,192.13q0,7-3.8,11.44a22.21,22.21,0,0,1-10.17,6.49,45.17,45.17,0,0,1-14.08,2.09H223.37v-78.1h45.32A15.78,15.78,0,0,1,278.2,137a19.09,19.09,0,0,1,6.16,7.54,22.49,22.49,0,0,1,2.15,9.57,21.29,21.29,0,0,1-2.81,10.45,17.57,17.57,0,0,1-8.41,7.59A20.46,20.46,0,0,1,285.9,179Q289.8,184,289.81,192.13Zm-45-39.82v12h14.63a7.79,7.79,0,0,0,2.75-.5,4.55,4.55,0,0,0,2.2-1.81,6.78,6.78,0,0,0,.88-3.74,7,7,0,0,0-.72-3.46,4.64,4.64,0,0,0-1.87-1.88,5.51,5.51,0,0,0-2.58-.6ZM268,187.73a7.83,7.83,0,0,0-.72-3.46,6.29,6.29,0,0,0-1.92-2.37,4.72,4.72,0,0,0-2.86-.88H244.82v13.09h16.94a6.69,6.69,0,0,0,3.19-.77,5.67,5.67,0,0,0,2.25-2.2A6.7,6.7,0,0,0,268,187.73Z"/><path class="cls-1" d="M315.44,134.05h24l24.86,78.1H342.5l-4-15.29H316.39l-4,15.29h-21.9Zm19.24,48.51-7.25-27.5-7.26,27.5Z"/><path class="cls-1" d="M370.76,212.15v-78.1h21.45v59.4h35.42v18.7Z"/><path class="cls-1" d="M504.19,134.05v78.1H482.74V181.57H456.56v30.58H435.11v-78.1h21.45v28.82h26.18V134.05Z"/><path class="cls-1" d="M535.65,134.05h24l24.86,78.1H562.71l-4-15.29H536.61l-4,15.29H510.68Zm19.25,48.51-7.26-27.5-7.25,27.5Z"/><path class="cls-1" d="M591,212.15v-78.1h30q13,0,21.73,5.23a33.82,33.82,0,0,1,13.2,14.08A43,43,0,0,1,660.39,173q0,11.88-4.89,20.68a34.25,34.25,0,0,1-13.75,13.64q-8.87,4.84-20.74,4.84ZM638.61,173a25.14,25.14,0,0,0-2.09-10.61,16.16,16.16,0,0,0-6-7.1,17.16,17.16,0,0,0-9.46-2.53h-8.58v40.7H621a16.62,16.62,0,0,0,9.52-2.64,16.92,16.92,0,0,0,6-7.32A25.3,25.3,0,0,0,638.61,173Z"/><path class="cls-1" d="M704.94,212.7a38.19,38.19,0,0,1-16.17-3.35,39.06,39.06,0,0,1-12.48-9,40.6,40.6,0,0,1-8-12.76,39.58,39.58,0,0,1-2.81-14.68,37.79,37.79,0,0,1,3-14.85,41,41,0,0,1,8.31-12.59,38.74,38.74,0,0,1,12.65-8.75,39.51,39.51,0,0,1,16-3.19A37.77,37.77,0,0,1,734,145.93a42,42,0,0,1,8,12.81,39.32,39.32,0,0,1,2.8,14.58,38.21,38.21,0,0,1-2.91,14.74,40.51,40.51,0,0,1-8.25,12.59,39.86,39.86,0,0,1-12.6,8.81A39,39,0,0,1,704.94,212.7Zm-17.71-39.6a26.63,26.63,0,0,0,1.1,7.64,20.61,20.61,0,0,0,3.3,6.61,15.8,15.8,0,0,0,5.56,4.61,19.31,19.31,0,0,0,16-.05,15.28,15.28,0,0,0,5.56-4.79,21.74,21.74,0,0,0,3.19-6.71,27.65,27.65,0,0,0,1-7.53,26.14,26.14,0,0,0-1.1-7.59,20.72,20.72,0,0,0-3.3-6.55,15.28,15.28,0,0,0-5.61-4.56,18,18,0,0,0-7.92-1.65,17,17,0,0,0-8,1.76,16.4,16.4,0,0,0-5.56,4.67,19.75,19.75,0,0,0-3.24,6.6A27.4,27.4,0,0,0,687.23,173.1Z"/><path class="cls-1" d="M753.89,212.15v-78.1h35.86a24.22,24.22,0,0,1,10.56,2.31,26.54,26.54,0,0,1,8.36,6.21,29.09,29.09,0,0,1,5.45,8.75,26.37,26.37,0,0,1,1.92,9.79,28.69,28.69,0,0,1-1.32,8.69,26.33,26.33,0,0,1-3.85,7.65,26.87,26.87,0,0,1-6,6l16.5,28.71H797.78l-13.75-24h-8.69v24Zm21.45-42.68h13.53a4,4,0,0,0,2.53-1,7.49,7.49,0,0,0,2-2.86,11.15,11.15,0,0,0,.82-4.51,10,10,0,0,0-.93-4.57,7.85,7.85,0,0,0-2.31-2.8,4.64,4.64,0,0,0-2.7-1h-13Z"/><path class="cls-1" d="M883.8,193.45v18.7H828.14v-78.1h54.67v18.7H849.59v11H878v17.38H849.59v12.32Z"/><path class="cls-1" d="M941.11,159.68a68.49,68.49,0,0,0-6.82-3.57,56.3,56.3,0,0,0-6.71-2.48,24.72,24.72,0,0,0-7.15-1.1,10.15,10.15,0,0,0-4.51.87,3,3,0,0,0-1.76,2.95,3.66,3.66,0,0,0,1.76,3.16,18.45,18.45,0,0,0,5,2.18c2.17.65,4.75,1.45,7.76,2.4a67.6,67.6,0,0,1,12.54,5,21.68,21.68,0,0,1,8.14,7.25q2.85,4.41,2.86,11.71a24.72,24.72,0,0,1-2.53,11.72,20.48,20.48,0,0,1-6.82,7.58,29.7,29.7,0,0,1-9.57,4.09,46.86,46.86,0,0,1-10.78,1.25,63.11,63.11,0,0,1-11.72-1.16A78.48,78.48,0,0,1,899,208.36a62.44,62.44,0,0,1-10.45-4.79l9.24-18.81a80.58,80.58,0,0,0,8,4.29,62.32,62.32,0,0,0,8.08,3,31.43,31.43,0,0,0,9,1.32c2.34,0,4-.3,4.89-.89a2.71,2.71,0,0,0,1.38-2.36,3.89,3.89,0,0,0-2.42-3.55,36.33,36.33,0,0,0-6.33-2.41q-3.9-1.14-8.63-2.67a48.73,48.73,0,0,1-11.22-5.19,18.61,18.61,0,0,1-6.49-6.89,20.46,20.46,0,0,1-2.09-9.66q0-8.64,4.07-14.42a25.9,25.9,0,0,1,10.72-8.8,34.53,34.53,0,0,1,14.36-3,43.91,43.91,0,0,1,11,1.38,69.93,69.93,0,0,1,10,3.35q4.68,2,8.2,3.74Z"/><path class="cls-2" d="M137,80.15V2.05h30q13,0,21.73,5.23a33.82,33.82,0,0,1,13.2,14.08A43,43,0,0,1,206.37,41q0,11.88-4.89,20.68a34.25,34.25,0,0,1-13.75,13.64q-8.86,4.84-20.74,4.84ZM184.59,41a25.14,25.14,0,0,0-2.09-10.61,16.16,16.16,0,0,0-6.05-7.1A17.16,17.16,0,0,0,167,20.75h-8.58v40.7H167a16.62,16.62,0,0,0,9.52-2.64,17,17,0,0,0,6-7.31A25.38,25.38,0,0,0,184.59,41Z"/><path class="cls-2" d="M215.72,80.15V2.05h21.45v78.1Z"/><path class="cls-2" d="M250.59,80.15V2.05h35.86A24.22,24.22,0,0,1,297,4.36a26.54,26.54,0,0,1,8.36,6.21,29.09,29.09,0,0,1,5.45,8.75,26.37,26.37,0,0,1,1.92,9.79,28.69,28.69,0,0,1-1.32,8.69,26.33,26.33,0,0,1-3.85,7.65,27.08,27.08,0,0,1-6.05,6L318,80.15H294.48l-13.75-24H272v24ZM272,37.47h13.53a4,4,0,0,0,2.53-1,7.48,7.48,0,0,0,2-2.86,11,11,0,0,0,.83-4.51,10,10,0,0,0-.93-4.57,7.77,7.77,0,0,0-2.32-2.8,4.59,4.59,0,0,0-2.69-1H272Z"/><path class="cls-2" d="M380.5,61.45v18.7H324.84V2.05h54.67v18.7H346.29v11h28.38V49.13H346.29V61.45Z"/><path class="cls-2" d="M390.51,80.15V2.05H412v78.1Z"/><path class="cls-2" d="M486.21,20.75H463.77v59.4H442.32V20.75H419.77V2.05h66.44Z"/><path class="cls-2" d="M528,80.7a38.19,38.19,0,0,1-16.17-3.35,39.1,39.1,0,0,1-12.49-9,40.78,40.78,0,0,1-8-12.76,39.57,39.57,0,0,1-2.8-14.68,37.79,37.79,0,0,1,3-14.85,41,41,0,0,1,8.3-12.59,38.84,38.84,0,0,1,12.65-8.75,39.56,39.56,0,0,1,16-3.19,37.77,37.77,0,0,1,28.6,12.43,42.1,42.1,0,0,1,8,12.82,39.24,39.24,0,0,1,2.81,14.57,38.22,38.22,0,0,1-2.92,14.74,40.25,40.25,0,0,1-20.84,21.4A39,39,0,0,1,528,80.7ZM510.3,41.1a26.41,26.41,0,0,0,1.1,7.65,20.51,20.51,0,0,0,3.3,6.59A15.6,15.6,0,0,0,520.25,60a19.34,19.34,0,0,0,16-.05,15.25,15.25,0,0,0,5.55-4.79,21.8,21.8,0,0,0,3.19-6.7,27.4,27.4,0,0,0,1-7.54,26.14,26.14,0,0,0-1.1-7.59,21,21,0,0,0-3.3-6.54A15.21,15.21,0,0,0,536,22.18a18,18,0,0,0-7.92-1.65,17,17,0,0,0-8,1.76A16.27,16.27,0,0,0,514.59,27a20,20,0,0,0-3.25,6.6A27.39,27.39,0,0,0,510.3,41.1Z"/><path class="cls-2" d="M601.71,80.15V2.05h30q13,0,21.72,5.23a33.82,33.82,0,0,1,13.2,14.08A43,43,0,0,1,671.12,41q0,11.88-4.9,20.68a34.19,34.19,0,0,1-13.75,13.64q-8.85,4.84-20.73,4.84ZM649.33,41a25.3,25.3,0,0,0-2.08-10.61,16.29,16.29,0,0,0-6-7.1,17.18,17.18,0,0,0-9.46-2.53h-8.58v40.7h8.58a16.57,16.57,0,0,0,9.51-2.64,17,17,0,0,0,6-7.31A25.54,25.54,0,0,0,649.33,41Z"/><path class="cls-2" d="M715.66,80.7a38.19,38.19,0,0,1-16.17-3.35,39.06,39.06,0,0,1-12.48-9,40.78,40.78,0,0,1-8-12.76,39.58,39.58,0,0,1-2.81-14.68,37.79,37.79,0,0,1,3-14.85,41,41,0,0,1,8.31-12.59A38.74,38.74,0,0,1,700.1,4.69a39.55,39.55,0,0,1,16-3.19,37.77,37.77,0,0,1,28.6,12.43,41.93,41.93,0,0,1,8,12.82,39.23,39.23,0,0,1,2.8,14.57,38.21,38.21,0,0,1-2.91,14.74,40.33,40.33,0,0,1-8.25,12.59,39.86,39.86,0,0,1-12.6,8.81A39,39,0,0,1,715.66,80.7ZM698,41.1a26.75,26.75,0,0,0,1.1,7.65,20.92,20.92,0,0,0,3.3,6.59A15.72,15.72,0,0,0,707.91,60a19.31,19.31,0,0,0,16-.05,15.2,15.2,0,0,0,5.56-4.79,21.8,21.8,0,0,0,3.19-6.7,27.39,27.39,0,0,0,1-7.54,25.81,25.81,0,0,0-1.1-7.59,20.56,20.56,0,0,0-3.3-6.54,15,15,0,0,0-5.61-4.57,18,18,0,0,0-7.92-1.65,17,17,0,0,0-8,1.76A16.4,16.4,0,0,0,702.24,27a20.13,20.13,0,0,0-3.24,6.6A27.4,27.4,0,0,0,698,41.1Z"/><path class="cls-2" d="M811.25,27.68a66.37,66.37,0,0,0-6.82-3.57,55.67,55.67,0,0,0-6.71-2.48,24.66,24.66,0,0,0-7.15-1.1,10.21,10.21,0,0,0-4.51.87,3,3,0,0,0-1.76,3,3.68,3.68,0,0,0,1.76,3.16,19,19,0,0,0,5,2.18c2.16.65,4.75,1.45,7.75,2.39a68.28,68.28,0,0,1,12.54,5,21.6,21.6,0,0,1,8.14,7.25q2.87,4.41,2.86,11.71a24.6,24.6,0,0,1-2.53,11.72A20.39,20.39,0,0,1,813,75.36a29.7,29.7,0,0,1-9.57,4.09,46.79,46.79,0,0,1-10.78,1.25A63,63,0,0,1,781,79.54a78.93,78.93,0,0,1-11.83-3.18,63.19,63.19,0,0,1-10.45-4.79l9.24-18.81a81.69,81.69,0,0,0,8,4.29A62.49,62.49,0,0,0,784,60a31.41,31.41,0,0,0,9,1.32c2.35,0,4-.3,4.9-.89a2.7,2.7,0,0,0,1.37-2.36,3.87,3.87,0,0,0-2.42-3.55,36.19,36.19,0,0,0-6.32-2.41q-3.9-1.14-8.64-2.67a49.13,49.13,0,0,1-11.22-5.19,18.83,18.83,0,0,1-6.49-6.88,20.65,20.65,0,0,1-2.09-9.67q0-8.64,4.07-14.42a25.93,25.93,0,0,1,10.73-8.8,34.52,34.52,0,0,1,14.35-3,44,44,0,0,1,11.06,1.38,70.35,70.35,0,0,1,10,3.35q4.68,2,8.19,3.74Z"/><path class="cls-2" d="M67.94,152.75H45.5v59.4H24.05v-59.4H1.5v-18.7H67.94Z"/><path class="cls-2" d="M75.75,212.15v-78.1h35.86a24.22,24.22,0,0,1,10.56,2.31,26.65,26.65,0,0,1,8.36,6.21,28.86,28.86,0,0,1,5.44,8.75,26.18,26.18,0,0,1,1.93,9.79,28.69,28.69,0,0,1-1.32,8.69,26.33,26.33,0,0,1-3.85,7.65,26.87,26.87,0,0,1-6,6l16.5,28.71H119.64l-13.75-24H97.2v24ZM97.2,169.47h13.53a4,4,0,0,0,2.53-1,7.58,7.58,0,0,0,2-2.86,11.14,11.14,0,0,0,.83-4.51,9.89,9.89,0,0,0-.94-4.57,7.65,7.65,0,0,0-2.31-2.8,4.59,4.59,0,0,0-2.69-1h-13Z"/><path class="cls-2" d="M168,134.05h24l24.86,78.1H195.1l-4-15.29H169l-4,15.29H143.07Zm19.25,48.51L180,155.06l-7.26,27.5Z"/><path class="cls-2" d="M289.81,192.13q0,7-3.8,11.44a22.21,22.21,0,0,1-10.17,6.49,45.17,45.17,0,0,1-14.08,2.09H223.37v-78.1h45.32A15.78,15.78,0,0,1,278.2,137a19.09,19.09,0,0,1,6.16,7.54,22.49,22.49,0,0,1,2.15,9.57,21.29,21.29,0,0,1-2.81,10.45,17.57,17.57,0,0,1-8.41,7.59A20.46,20.46,0,0,1,285.9,179Q289.8,184,289.81,192.13Zm-45-39.82v12h14.63a7.79,7.79,0,0,0,2.75-.5,4.55,4.55,0,0,0,2.2-1.81,6.78,6.78,0,0,0,.88-3.74,7,7,0,0,0-.72-3.46,4.64,4.64,0,0,0-1.87-1.88,5.51,5.51,0,0,0-2.58-.6ZM268,187.73a7.83,7.83,0,0,0-.72-3.46,6.29,6.29,0,0,0-1.92-2.37,4.72,4.72,0,0,0-2.86-.88H244.82v13.09h16.94a6.69,6.69,0,0,0,3.19-.77,5.67,5.67,0,0,0,2.25-2.2A6.7,6.7,0,0,0,268,187.73Z"/><path class="cls-2" d="M315.44,134.05h24l24.86,78.1H342.5l-4-15.29H316.39l-4,15.29h-21.9Zm19.24,48.51-7.25-27.5-7.26,27.5Z"/><path class="cls-2" d="M370.76,212.15v-78.1h21.45v59.4h35.42v18.7Z"/><path class="cls-2" d="M504.19,134.05v78.1H482.74V181.57H456.56v30.58H435.11v-78.1h21.45v28.82h26.18V134.05Z"/><path class="cls-2" d="M535.65,134.05h24l24.86,78.1H562.71l-4-15.29H536.61l-4,15.29H510.68Zm19.25,48.51-7.26-27.5-7.25,27.5Z"/><path class="cls-2" d="M591,212.15v-78.1h30q13,0,21.73,5.23a33.82,33.82,0,0,1,13.2,14.08A43,43,0,0,1,660.39,173q0,11.88-4.89,20.68a34.25,34.25,0,0,1-13.75,13.64q-8.87,4.84-20.74,4.84ZM638.61,173a25.14,25.14,0,0,0-2.09-10.61,16.16,16.16,0,0,0-6-7.1,17.16,17.16,0,0,0-9.46-2.53h-8.58v40.7H621a16.62,16.62,0,0,0,9.52-2.64,16.92,16.92,0,0,0,6-7.32A25.3,25.3,0,0,0,638.61,173Z"/><path class="cls-2" d="M704.94,212.7a38.19,38.19,0,0,1-16.17-3.35,39.06,39.06,0,0,1-12.48-9,40.6,40.6,0,0,1-8-12.76,39.58,39.58,0,0,1-2.81-14.68,37.79,37.79,0,0,1,3-14.85,41,41,0,0,1,8.31-12.59,38.74,38.74,0,0,1,12.65-8.75,39.51,39.51,0,0,1,16-3.19A37.77,37.77,0,0,1,734,145.93a42,42,0,0,1,8,12.81,39.32,39.32,0,0,1,2.8,14.58,38.21,38.21,0,0,1-2.91,14.74,40.51,40.51,0,0,1-8.25,12.59,39.86,39.86,0,0,1-12.6,8.81A39,39,0,0,1,704.94,212.7Zm-17.71-39.6a26.63,26.63,0,0,0,1.1,7.64,20.61,20.61,0,0,0,3.3,6.61,15.8,15.8,0,0,0,5.56,4.61,19.31,19.31,0,0,0,16-.05,15.28,15.28,0,0,0,5.56-4.79,21.74,21.74,0,0,0,3.19-6.71,27.65,27.65,0,0,0,1-7.53,26.14,26.14,0,0,0-1.1-7.59,20.72,20.72,0,0,0-3.3-6.55,15.28,15.28,0,0,0-5.61-4.56,18,18,0,0,0-7.92-1.65,17,17,0,0,0-8,1.76,16.4,16.4,0,0,0-5.56,4.67,19.75,19.75,0,0,0-3.24,6.6A27.4,27.4,0,0,0,687.23,173.1Z"/><path class="cls-2" d="M753.89,212.15v-78.1h35.86a24.22,24.22,0,0,1,10.56,2.31,26.54,26.54,0,0,1,8.36,6.21,29.09,29.09,0,0,1,5.45,8.75,26.37,26.37,0,0,1,1.92,9.79,28.69,28.69,0,0,1-1.32,8.69,26.33,26.33,0,0,1-3.85,7.65,26.87,26.87,0,0,1-6,6l16.5,28.71H797.78l-13.75-24h-8.69v24Zm21.45-42.68h13.53a4,4,0,0,0,2.53-1,7.49,7.49,0,0,0,2-2.86,11.15,11.15,0,0,0,.82-4.51,10,10,0,0,0-.93-4.57,7.85,7.85,0,0,0-2.31-2.8,4.64,4.64,0,0,0-2.7-1h-13Z"/><path class="cls-2" d="M883.8,193.45v18.7H828.14v-78.1h54.67v18.7H849.59v11H878v17.38H849.59v12.32Z"/><path class="cls-2" d="M941.11,159.68a68.49,68.49,0,0,0-6.82-3.57,56.3,56.3,0,0,0-6.71-2.48,24.72,24.72,0,0,0-7.15-1.1,10.15,10.15,0,0,0-4.51.87,3,3,0,0,0-1.76,2.95,3.66,3.66,0,0,0,1.76,3.16,18.45,18.45,0,0,0,5,2.18c2.17.65,4.75,1.45,7.76,2.4a67.6,67.6,0,0,1,12.54,5,21.68,21.68,0,0,1,8.14,7.25q2.85,4.41,2.86,11.71a24.72,24.72,0,0,1-2.53,11.72,20.48,20.48,0,0,1-6.82,7.58,29.7,29.7,0,0,1-9.57,4.09,46.86,46.86,0,0,1-10.78,1.25,63.11,63.11,0,0,1-11.72-1.16A78.48,78.48,0,0,1,899,208.36a62.44,62.44,0,0,1-10.45-4.79l9.24-18.81a80.58,80.58,0,0,0,8,4.29,62.32,62.32,0,0,0,8.08,3,31.43,31.43,0,0,0,9,1.32c2.34,0,4-.3,4.89-.89a2.71,2.71,0,0,0,1.38-2.36,3.89,3.89,0,0,0-2.42-3.55,36.33,36.33,0,0,0-6.33-2.41q-3.9-1.14-8.63-2.67a48.73,48.73,0,0,1-11.22-5.19,18.61,18.61,0,0,1-6.49-6.89,20.46,20.46,0,0,1-2.09-9.66q0-8.64,4.07-14.42a25.9,25.9,0,0,1,10.72-8.8,34.53,34.53,0,0,1,14.36-3,43.91,43.91,0,0,1,11,1.38,69.93,69.93,0,0,1,10,3.35q4.68,2,8.2,3.74Z"/></g></g></svg>