<svg xmlns="http://www.w3.org/2000/svg" viewBox="0 0 594.14 127.74"><defs><style>.cls-1{fill:none;stroke:#000;stroke-miterlimit:10;stroke-width:3px;}.cls-2{fill:#eac852;}</style></defs><g id="Camada_2" data-name="Camada 2"><g id="Camada_1-2" data-name="Camada 1"><path class="cls-1" d="M57.16,83.34V102H1.5V23.94H56.17v18.7H23v11H51.33V71H23V83.34Z"/><path class="cls-1" d="M67.17,102V23.94h30q13,0,21.72,5.22a33.94,33.94,0,0,1,13.2,14.08,43.1,43.1,0,0,1,4.46,19.64q0,11.88-4.9,20.68A34.13,34.13,0,0,1,117.93,97.2Q109.08,102,97.2,102ZM114.8,62.88a25.38,25.38,0,0,0-2.09-10.62,16.25,16.25,0,0,0-6-7.09,17.16,17.16,0,0,0-9.46-2.53H88.62v40.7H97.2a16.57,16.57,0,0,0,9.51-2.64,16.94,16.94,0,0,0,6-7.32A25.46,25.46,0,0,0,114.8,62.88Z"/><path class="cls-1" d="M180,102.59A38.44,38.44,0,0,1,164,99.52,29.08,29.08,0,0,1,153,91.06a35.45,35.45,0,0,1-6.21-12.36,53.47,53.47,0,0,1-2-14.67V23.94h21.45V64a33.8,33.8,0,0,0,.77,7.35,20.57,20.57,0,0,0,2.42,6.26A12.66,12.66,0,0,0,173.7,82,11.85,11.85,0,0,0,180,83.56,12.39,12.39,0,0,0,186.52,82a11.85,11.85,0,0,0,4.23-4.4,22.57,22.57,0,0,0,2.37-6.31,34,34,0,0,0,.77-7.24V23.94h21.45V64a51.67,51.67,0,0,1-2.15,15.16,35.86,35.86,0,0,1-6.43,12.31,28.67,28.67,0,0,1-10.95,8.18A39.17,39.17,0,0,1,180,102.59Z"/><path class="cls-1" d="M223.37,62.22a38.09,38.09,0,0,1,2.69-14,39.7,39.7,0,0,1,7.87-12.48,38.35,38.35,0,0,1,12.59-9,40.41,40.41,0,0,1,16.78-3.35,39.55,39.55,0,0,1,19.58,4.67,30.49,30.49,0,0,1,12.43,12.38L278.92,52.1a13,13,0,0,0-4.13-5.94A16.25,16.25,0,0,0,269,43.24a23.89,23.89,0,0,0-6.1-.82,16.56,16.56,0,0,0-8,1.81,16.14,16.14,0,0,0-5.5,4.79,21.26,21.26,0,0,0-3.19,6.6,26,26,0,0,0-1,7.26,25.11,25.11,0,0,0,1.21,7.81,20.87,20.87,0,0,0,3.52,6.65,16.23,16.23,0,0,0,5.66,4.57,16.87,16.87,0,0,0,7.54,1.65,20.58,20.58,0,0,0,6.05-.94,16.1,16.1,0,0,0,5.61-3A13,13,0,0,0,278.59,74l17.49,10.45a23,23,0,0,1-7.7,9.79,40.45,40.45,0,0,1-12.21,6.22,44.93,44.93,0,0,1-13.53,2.14,36.19,36.19,0,0,1-15.9-3.47,39.9,39.9,0,0,1-12.43-9.24,42.38,42.38,0,0,1-8.08-13A39.37,39.37,0,0,1,223.37,62.22Z"/><path class="cls-1" d="M320.5,23.94h24L369.34,102H347.56l-4-15.29H321.46l-4,15.29H295.53Zm19.25,48.51L332.49,45l-7.26,27.5Z"/><path class="cls-1" d="M368.35,62.22a38.3,38.3,0,0,1,2.69-14,39.7,39.7,0,0,1,7.87-12.48,38.35,38.35,0,0,1,12.59-9,40.41,40.41,0,0,1,16.78-3.35,39.55,39.55,0,0,1,19.58,4.67,30.49,30.49,0,0,1,12.43,12.38L423.9,52.1a13,13,0,0,0-4.13-5.94,16.17,16.17,0,0,0-5.83-2.92,23.89,23.89,0,0,0-6.1-.82,16.56,16.56,0,0,0-8,1.81,16.14,16.14,0,0,0-5.5,4.79,21.26,21.26,0,0,0-3.19,6.6,26.38,26.38,0,0,0-1,7.26,25.11,25.11,0,0,0,1.21,7.81,20.87,20.87,0,0,0,3.52,6.65,16.32,16.32,0,0,0,5.66,4.57,16.87,16.87,0,0,0,7.54,1.65,20.58,20.58,0,0,0,6.05-.94,16.1,16.1,0,0,0,5.61-3A13,13,0,0,0,423.57,74l17.49,10.45a23,23,0,0,1-7.7,9.79,40.45,40.45,0,0,1-12.21,6.22,44.93,44.93,0,0,1-13.53,2.14,36.22,36.22,0,0,1-15.9-3.47,40,40,0,0,1-12.43-9.24,42.38,42.38,0,0,1-8.08-13A39.37,39.37,0,0,1,368.35,62.22Zm37.62,64a25.42,25.42,0,0,1-6.6-.94,32.57,32.57,0,0,1-7-2.8l4.84-10.67a7.52,7.52,0,0,0,2.64,1.59,8.1,8.1,0,0,0,2.64.5,5,5,0,0,0,3.3-1.1,3.92,3.92,0,0,0,1.32-3.19,7.19,7.19,0,0,0-1.21-3.8,17.25,17.25,0,0,0-3.41-3.79l6.6-4a38.76,38.76,0,0,1,7.2,6.82,13.7,13.7,0,0,1,3,8.91,12.92,12.92,0,0,1-3.25,8.64Q412.79,126.23,406,126.24Z"/><path class="cls-1" d="M465.48,23.94h24L514.32,102H492.54l-4-15.29H466.44l-4,15.29H440.51Zm19.58-5.06a11.76,11.76,0,0,1-5.72-1.32c-1.62-.88-3.1-1.76-4.46-2.64a8.19,8.19,0,0,0-4.56-1.32,4.41,4.41,0,0,0-3.52,1.27,5.15,5.15,0,0,0-1.32,2.58c-.15.88-.22,1.36-.22,1.43H454.15a17.17,17.17,0,0,1,.82-4.29,23.54,23.54,0,0,1,2.7-5.88,17.68,17.68,0,0,1,4.78-5.12,11.71,11.71,0,0,1,7-2.09,11.16,11.16,0,0,1,5.94,1.43c1.54.95,3,1.89,4.34,2.8a8,8,0,0,0,4.57,1.38,4.5,4.5,0,0,0,3.57-1.32A6.86,6.86,0,0,0,489.4,3c.26-1,.39-1.47.39-1.54h11a15.13,15.13,0,0,1-.88,3.74,28.55,28.55,0,0,1-2.75,5.88,19.61,19.61,0,0,1-4.84,5.45A11.47,11.47,0,0,1,485.06,18.88Zm-.33,53.57L477.47,45l-7.26,27.5Z"/><path class="cls-1" d="M552.82,102.59a38,38,0,0,1-16.17-3.36,39,39,0,0,1-12.49-9,40.85,40.85,0,0,1-8-12.75,39.66,39.66,0,0,1-2.8-14.69,37.79,37.79,0,0,1,3-14.85,41.36,41.36,0,0,1,8.3-12.6,39.08,39.08,0,0,1,12.65-8.74,39.56,39.56,0,0,1,16-3.19,37.68,37.68,0,0,1,28.6,12.43,42.05,42.05,0,0,1,8,12.81,39.37,39.37,0,0,1,2.81,14.58A38,38,0,0,1,589.72,78a40.15,40.15,0,0,1-8.25,12.59,39.51,39.51,0,0,1-12.59,8.8A38.83,38.83,0,0,1,552.82,102.59ZM535.11,63a26.29,26.29,0,0,0,1.1,7.64,20.46,20.46,0,0,0,3.3,6.6,15.69,15.69,0,0,0,5.55,4.62,19.34,19.34,0,0,0,16,0A15.25,15.25,0,0,0,566.62,77a21.52,21.52,0,0,0,3.19-6.71,27.28,27.28,0,0,0,1.05-7.53,26.14,26.14,0,0,0-1.1-7.59,20.93,20.93,0,0,0-3.3-6.55,15.28,15.28,0,0,0-5.61-4.56,18,18,0,0,0-7.92-1.65,17,17,0,0,0-8,1.76,16.46,16.46,0,0,0-5.55,4.67,19.91,19.91,0,0,0-3.25,6.61A27.65,27.65,0,0,0,535.11,63Z"/><path class="cls-2" d="M57.16,83.34V102H1.5V23.94H56.17v18.7H23v11H51.33V71H23V83.34Z"/><path class="cls-2" d="M67.17,102V23.94h30q13,0,21.72,5.22a33.94,33.94,0,0,1,13.2,14.08,43.1,43.1,0,0,1,4.46,19.64q0,11.88-4.9,20.68A34.13,34.13,0,0,1,117.93,97.2Q109.08,102,97.2,102ZM114.8,62.88a25.38,25.38,0,0,0-2.09-10.62,16.25,16.25,0,0,0-6-7.09,17.16,17.16,0,0,0-9.46-2.53H88.62v40.7H97.2a16.57,16.57,0,0,0,9.51-2.64,16.94,16.94,0,0,0,6-7.32A25.46,25.46,0,0,0,114.8,62.88Z"/><path class="cls-2" d="M180,102.59A38.44,38.44,0,0,1,164,99.52,29.08,29.08,0,0,1,153,91.06a35.45,35.45,0,0,1-6.21-12.36,53.47,53.47,0,0,1-2-14.67V23.94h21.45V64a33.8,33.8,0,0,0,.77,7.35,20.57,20.57,0,0,0,2.42,6.26A12.66,12.66,0,0,0,173.7,82,11.85,11.85,0,0,0,180,83.56,12.39,12.39,0,0,0,186.52,82a11.85,11.85,0,0,0,4.23-4.4,22.57,22.57,0,0,0,2.37-6.31,34,34,0,0,0,.77-7.24V23.94h21.45V64a51.67,51.67,0,0,1-2.15,15.16,35.86,35.86,0,0,1-6.43,12.31,28.67,28.67,0,0,1-10.95,8.18A39.17,39.17,0,0,1,180,102.59Z"/><path class="cls-2" d="M223.37,62.22a38.09,38.09,0,0,1,2.69-14,39.7,39.7,0,0,1,7.87-12.48,38.35,38.35,0,0,1,12.59-9,40.41,40.41,0,0,1,16.78-3.35,39.55,39.55,0,0,1,19.58,4.67,30.49,30.49,0,0,1,12.43,12.38L278.92,52.1a13,13,0,0,0-4.13-5.94A16.25,16.25,0,0,0,269,43.24a23.89,23.89,0,0,0-6.1-.82,16.56,16.56,0,0,0-8,1.81,16.14,16.14,0,0,0-5.5,4.79,21.26,21.26,0,0,0-3.19,6.6,26,26,0,0,0-1,7.26,25.11,25.11,0,0,0,1.21,7.81,20.87,20.87,0,0,0,3.52,6.65,16.23,16.23,0,0,0,5.66,4.57,16.87,16.87,0,0,0,7.54,1.65,20.58,20.58,0,0,0,6.05-.94,16.1,16.1,0,0,0,5.61-3A13,13,0,0,0,278.59,74l17.49,10.45a23,23,0,0,1-7.7,9.79,40.45,40.45,0,0,1-12.21,6.22,44.93,44.93,0,0,1-13.53,2.14,36.19,36.19,0,0,1-15.9-3.47,39.9,39.9,0,0,1-12.43-9.24,42.38,42.38,0,0,1-8.08-13A39.37,39.37,0,0,1,223.37,62.22Z"/><path class="cls-2" d="M320.5,23.94h24L369.34,102H347.56l-4-15.29H321.46l-4,15.29H295.53Zm19.25,48.51L332.49,45l-7.26,27.5Z"/><path class="cls-2" d="M368.35,62.22a38.3,38.3,0,0,1,2.69-14,39.7,39.7,0,0,1,7.87-12.48,38.35,38.35,0,0,1,12.59-9,40.41,40.41,0,0,1,16.78-3.35,39.55,39.55,0,0,1,19.58,4.67,30.49,30.49,0,0,1,12.43,12.38L423.9,52.1a13,13,0,0,0-4.13-5.94,16.17,16.17,0,0,0-5.83-2.92,23.89,23.89,0,0,0-6.1-.82,16.56,16.56,0,0,0-8,1.81,16.14,16.14,0,0,0-5.5,4.79,21.26,21.26,0,0,0-3.19,6.6,26.38,26.38,0,0,0-1,7.26,25.11,25.11,0,0,0,1.21,7.81,20.87,20.87,0,0,0,3.52,6.65,16.32,16.32,0,0,0,5.66,4.57,16.87,16.87,0,0,0,7.54,1.65,20.58,20.58,0,0,0,6.05-.94,16.1,16.1,0,0,0,5.61-3A13,13,0,0,0,423.57,74l17.49,10.45a23,23,0,0,1-7.7,9.79,40.45,40.45,0,0,1-12.21,6.22,44.93,44.93,0,0,1-13.53,2.14,36.22,36.22,0,0,1-15.9-3.47,40,40,0,0,1-12.43-9.24,42.38,42.38,0,0,1-8.08-13A39.37,39.37,0,0,1,368.35,62.22Zm37.62,64a25.42,25.42,0,0,1-6.6-.94,32.57,32.57,0,0,1-7-2.8l4.84-10.67a7.52,7.52,0,0,0,2.64,1.59,8.1,8.1,0,0,0,2.64.5,5,5,0,0,0,3.3-1.1,3.92,3.92,0,0,0,1.32-3.19,7.19,7.19,0,0,0-1.21-3.8,17.25,17.25,0,0,0-3.41-3.79l6.6-4a38.76,38.76,0,0,1,7.2,6.82,13.7,13.7,0,0,1,3,8.91,12.92,12.92,0,0,1-3.25,8.64Q412.79,126.23,406,126.24Z"/><path class="cls-2" d="M465.48,23.94h24L514.32,102H492.54l-4-15.29H466.44l-4,15.29H440.51Zm19.58-5.06a11.76,11.76,0,0,1-5.72-1.32c-1.62-.88-3.1-1.76-4.46-2.64a8.19,8.19,0,0,0-4.56-1.32,4.41,4.41,0,0,0-3.52,1.27,5.15,5.15,0,0,0-1.32,2.58c-.15.88-.22,1.36-.22,1.43H454.15a17.17,17.17,0,0,1,.82-4.29,23.54,23.54,0,0,1,2.7-5.88,17.68,17.68,0,0,1,4.78-5.12,11.71,11.71,0,0,1,7-2.09,11.16,11.16,0,0,1,5.94,1.43c1.54.95,3,1.89,4.34,2.8a8,8,0,0,0,4.57,1.38,4.5,4.5,0,0,0,3.57-1.32A6.86,6.86,0,0,0,489.4,3c.26-1,.39-1.47.39-1.54h11a15.13,15.13,0,0,1-.88,3.74,28.55,28.55,0,0,1-2.75,5.88,19.61,19.61,0,0,1-4.84,5.45A11.47,11.47,0,0,1,485.06,18.88Zm-.33,53.57L477.47,45l-7.26,27.5Z"/><path class="cls-2" d="M552.82,102.59a38,38,0,0,1-16.17-3.36,39,39,0,0,1-12.49-9,40.85,40.85,0,0,1-8-12.75,39.66,39.66,0,0,1-2.8-14.69,37.79,37.79,0,0,1,3-14.85,41.36,41.36,0,0,1,8.3-12.6,39.08,39.08,0,0,1,12.65-8.74,39.56,39.56,0,0,1,16-3.19,37.68,37.68,0,0,1,28.6,12.43,42.05,42.05,0,0,1,8,12.81,39.37,39.37,0,0,1,2.81,14.58A38,38,0,0,1,589.72,78a40.15,40.15,0,0,1-8.25,12.59,39.51,39.51,0,0,1-12.59,8.8A38.83,38.83,0,0,1,552.82,102.59ZM535.11,63a26.29,26.29,0,0,0,1.1,7.64,20.46,20.46,0,0,0,3.3,6.6,15.69,15.69,0,0,0,5.55,4.62,19.34,19.34,0,0,0,16,0A15.25,15.25,0,0,0,566.62,77a21.52,21.52,0,0,0,3.19-6.71,27.28,27.28,0,0,0,1.05-7.53,26.14,26.14,0,0,0-1.1-7.59,20.93,20.93,0,0,0-3.3-6.55,15.28,15.28,0,0,0-5.61-4.56,18,18,0,0,0-7.92-1.65,17,17,0,0,0-8,1.76,16.46,16.46,0,0,0-5.55,4.67,19.91,19.91,0,0,0-3.25,6.61A27.65,27.65,0,0,0,535.11,63Z"/></g></g></svg>