<svg id="Camada_1" data-name="Camada 1" xmlns="http://www.w3.org/2000/svg" viewBox="0 0 25 25"><defs><style>.cls-1{fill:#ea5252;}.cls-2{fill:#fff;}</style></defs><circle class="cls-1" cx="12.5" cy="12.5" r="12.5"/><path class="cls-2" d="M9.22,17.38c-.87-.87-1.41-2.14-1.41-4.51v0c0-3.67,1.66-6.49,5.22-6.49a5.47,5.47,0,0,1,3.72,1.31l-1.38,2a3.63,3.63,0,0,0-2.43-.95c-1.48,0-2.22,1.19-2.39,2.75A4.1,4.1,0,0,1,13,10.71c2.36,0,4.18,1.31,4.18,3.8v0c0,2.43-2,4.11-4.54,4.11A4.52,4.52,0,0,1,9.22,17.38Zm5.37-2.72v0c0-1-.78-1.73-2.07-1.73s-2,.71-2,1.72v0a1.84,1.84,0,0,0,2.07,1.77C13.84,16.41,14.59,15.68,14.59,14.66Z"/></svg>