<svg id="Camada_1" data-name="Camada 1" xmlns="http://www.w3.org/2000/svg" viewBox="0 0 25 25"><defs><style>.cls-1{fill:#ea5252;}.cls-2{fill:#fff;}</style></defs><circle class="cls-1" cx="12.5" cy="12.5" r="12.5"/><path class="cls-2" d="M8.08,17.24l1.38-2a3.83,3.83,0,0,0,2.6,1c1.46,0,2.24-1.1,2.41-2.7a3.64,3.64,0,0,1-2.41.82c-2.59,0-4.25-1.43-4.25-3.85v0c0-2.4,1.85-4.16,4.54-4.16a4.3,4.3,0,0,1,3.43,1.29c.85.85,1.41,2.14,1.41,4.49v0c0,3.86-1.82,6.49-5.2,6.49A5.72,5.72,0,0,1,8.08,17.24Zm6.44-6.8v0a1.85,1.85,0,0,0-2.09-1.82,1.79,1.79,0,0,0-2,1.8v0c0,1.05.78,1.78,2.07,1.78A1.8,1.8,0,0,0,14.52,10.44Z"/></svg>