<svg id="Camada_1" data-name="Camada 1" xmlns="http://www.w3.org/2000/svg" viewBox="0 0 25 25"><defs><style>.cls-1{fill:#ea5252;}.cls-2{fill:#fff;}</style></defs><circle class="cls-1" cx="12.5" cy="12.5" r="12.5"/><path class="cls-2" d="M6,9.12l-2.07.51L3.37,7.49l3.42-1H8.57v12H6Z"/><path class="cls-2" d="M11.06,12.53v0c0-3.45,2.14-6.15,5.3-6.15S21.63,9,21.63,12.47v0c0,3.45-2.13,6.15-5.31,6.15S11.06,16,11.06,12.53Zm7.88,0v0c0-2.16-1.05-3.79-2.62-3.79s-2.58,1.58-2.58,3.76v0c0,2.18,1,3.79,2.62,3.79S18.94,14.69,18.94,12.53Z"/></svg>