<svg id="Camada_1" data-name="Camada 1" xmlns="http://www.w3.org/2000/svg" viewBox="0 0 25 25"><defs><style>.cls-1{fill:#ea5252;}.cls-2{fill:#fff;}</style></defs><circle class="cls-1" cx="12.5" cy="12.5" r="12.5"/><path class="cls-2" d="M8,17.68a5.45,5.45,0,0,1-.31-.58,5.3,5.3,0,0,1-.37-1.56.79.79,0,0,0-.19-.45A1.79,1.79,0,0,1,6.73,14,3.08,3.08,0,0,1,7,12.31a1.28,1.28,0,0,1,.11-.2.6.6,0,0,1-.23-.89.39.39,0,0,1,.57-.14c-.24.09-.34.26-.25.47s.16.17.28.06a4.64,4.64,0,0,1,2.29-1.19,6.59,6.59,0,0,1,2.93,0,4,4,0,0,1,1.69.75c.07.05.12.11.19.17a2,2,0,0,1,1.56-.8,1.54,1.54,0,0,0-.33,1.06s0,.08.06.09a3.45,3.45,0,0,1,1.5,1.5.21.21,0,0,0,.13.09h.76a2.59,2.59,0,0,1-.08,1.11.84.84,0,0,1-.2.29,6.78,6.78,0,0,1-2.75,1.61,5.62,5.62,0,0,1-.55.15.13.13,0,0,0-.12.13,3.49,3.49,0,0,0,0,1l0,.1H13.08c-.12-.2-.27-.4-.38-.61a.34.34,0,0,0-.39-.2A9.92,9.92,0,0,1,10,16.78l-.53-.09c0,.19,0,.36,0,.54s0,.3,0,.45Zm5-6.75a5.15,5.15,0,0,0-3.4,0c.08.24.08.24.32.17A4.58,4.58,0,0,1,12,11c.3,0,.59.12.9.19ZM15.62,13a.37.37,0,0,0,.37.37.38.38,0,0,0,.37-.37.37.37,0,1,0-.74,0Z"/><path class="cls-2" d="M11.3,7.32a1.24,1.24,0,0,0-1.22,1.24,1.23,1.23,0,0,0,2.46,0A1.24,1.24,0,0,0,11.3,7.32Zm0,2.11h0a.87.87,0,0,1-.87-.87.88.88,0,0,1,.87-.89h0a.87.87,0,0,1,.62.26.84.84,0,0,1,.26.62A.87.87,0,0,1,11.31,9.43ZM11.88,8a.81.81,0,0,0-.57-.23h0a.82.82,0,0,0,0,1.63h0a.82.82,0,0,0,.81-.81h0A.8.8,0,0,0,11.88,8Z"/></svg>