<svg id="Camada_1" data-name="Camada 1" xmlns="http://www.w3.org/2000/svg" viewBox="0 0 25 25"><defs><style>.cls-1{fill:#ea5252;}.cls-2{fill:#fff;}</style></defs><circle class="cls-1" cx="12.5" cy="12.5" r="12.5"/><path class="cls-2" d="M8,16.77l1.58-1.89a4.15,4.15,0,0,0,2.84,1.29c1.23,0,2-.59,2-1.65v0c0-1-.87-1.62-2.11-1.62a5.11,5.11,0,0,0-2,.45l-1.51-1,.34-5.86h7.31V8.74H11.4l-.14,2.06a5.75,5.75,0,0,1,1.56-.2c2.31,0,4.17,1.12,4.17,3.8v0c0,2.51-1.79,4.11-4.52,4.11A6.15,6.15,0,0,1,8,16.77Z"/></svg>