<svg id="Camada_1" data-name="Camada 1" xmlns="http://www.w3.org/2000/svg" viewBox="0 0 25 25"><defs><style>.cls-1{fill:#ea5252;}.cls-2{fill:#fff;}</style></defs><circle class="cls-1" cx="12.5" cy="12.5" r="12.5"/><path class="cls-2" d="M7.91,15.19v0a2.89,2.89,0,0,1,1.92-2.87,2.83,2.83,0,0,1-1.51-2.6v0c0-1.81,1.66-3.26,4.18-3.26s4.18,1.43,4.18,3.26v0a2.83,2.83,0,0,1-1.51,2.6,2.94,2.94,0,0,1,1.92,2.8v0c0,2.21-1.95,3.5-4.59,3.5S7.91,17.26,7.91,15.19ZM14.56,15v0c0-.92-.87-1.46-2.06-1.46S10.44,14,10.44,15v0c0,.82.77,1.48,2.06,1.48S14.56,15.81,14.56,15Zm-.36-5v0a1.51,1.51,0,0,0-1.7-1.39c-1.07,0-1.7.65-1.7,1.38v0a1.52,1.52,0,0,0,1.7,1.46A1.51,1.51,0,0,0,14.2,10Z"/></svg>