<svg id="Camada_1" data-name="Camada 1" xmlns="http://www.w3.org/2000/svg" viewBox="0 0 25 25"><defs><style>.cls-1{fill:#ea5252;}.cls-2{fill:#fff;}</style></defs><circle class="cls-1" cx="12.5" cy="12.5" r="12.5"/><path class="cls-2" d="M19.12,18.07h-3.3a.31.31,0,0,1,0-.09c0-.67,0-1.33,0-2a1.17,1.17,0,0,1,.67-1.11,1.24,1.24,0,0,1,.42-.11,9.42,9.42,0,0,1,1.19,0,1.13,1.13,0,0,1,1,1,.19.19,0,0,0,0,.07Z"/><path class="cls-2" d="M5.88,18.06V15.88a.85.85,0,0,1,0-.22,1.14,1.14,0,0,1,1-.89,8.37,8.37,0,0,1,1.12,0,1.14,1.14,0,0,1,1.09,1.11c0,.73,0,1.45,0,2.18Z"/><path class="cls-2" d="M14.15,11.92h-3.3s0-.08,0-.12v-2a1.17,1.17,0,0,1,.68-1.11A1.36,1.36,0,0,1,12,8.62c.35,0,.7,0,1.05,0a1.16,1.16,0,0,1,1.09,1.13C14.16,10.47,14.15,11.19,14.15,11.92Z"/><path class="cls-2" d="M11.35,7.07c0,.17,0,.32,0,.46a.15.15,0,0,1-.1.07,4.84,4.84,0,0,0-2,1.1,5,5,0,0,0-1.57,2.73v0L8.1,11l.37.35-.75.74-.24.24a.24.24,0,0,1-.37,0l-1-1L6.49,11l.61.63A5.54,5.54,0,0,1,11.35,7.07Z"/><path class="cls-2" d="M14.73,7.43A5.56,5.56,0,0,1,18,12.49l-.25-.06a1.66,1.66,0,0,0-.22,0,5,5,0,0,0-3.17-4.61l.24.91-.46.12-.3-1.13a1.6,1.6,0,0,1,0-.21.25.25,0,0,1,.19-.33l1.33-.36.13.46Z"/><path class="cls-2" d="M14.39,16.91l-.76-.2.12-.46,1.05.28c.1,0,.21,0,.31.09a.26.26,0,0,1,.15.43.65.65,0,0,0,0,.13c-.1.36-.2.72-.3,1.1l-.45-.13.21-.82-.16.06A5.34,5.34,0,0,1,9.74,17a.22.22,0,0,1-.08-.14c0-.14,0-.29,0-.46A4.91,4.91,0,0,0,14.39,16.91Z"/><path class="cls-2" d="M13.2,7.43a.71.71,0,1,1-1.41,0,.73.73,0,0,1,.71-.71A.71.71,0,0,1,13.2,7.43Z"/><path class="cls-2" d="M8.24,13.58a.7.7,0,0,1-.7.71.71.71,0,0,1-.71-.71.71.71,0,1,1,1.41,0Z"/><path class="cls-2" d="M18.17,13.57a.72.72,0,0,1-.7.72.7.7,0,0,1-.71-.7.71.71,0,1,1,1.41,0Z"/></svg>