<svg id="Camada_1" data-name="Camada 1" xmlns="http://www.w3.org/2000/svg" viewBox="0 0 25 25"><defs><style>.cls-1{fill:#ea5252;}.cls-2{fill:#fff;}</style></defs><circle class="cls-1" cx="12.5" cy="12.5" r="12.5"/><path class="cls-2" d="M10.65,9.24c-.26.21-.51.39-.73.59a6.45,6.45,0,0,0-.58.59.31.31,0,0,1-.26.12H7.3v6.09h8.46V14.79a.27.27,0,0,1,.11-.23l1.18-1c0,.08,0,.13,0,.18v3.43a.65.65,0,0,1-.72.72H6.72A.66.66,0,0,1,6,17.2V10a.66.66,0,0,1,.72-.73Z"/><path class="cls-2" d="M14.67,13.58V11.41l-.92,0a4.78,4.78,0,0,0-2.69,1A6.09,6.09,0,0,0,9.9,13.68c-.19.26-.36.53-.54.8l-.09.13H9.21c.1-.5.18-1,.31-1.49a5.64,5.64,0,0,1,1.71-2.85,4.83,4.83,0,0,1,2.68-1.12l.75-.05v-2L19,10.34Z"/></svg>