<svg xmlns="http://www.w3.org/2000/svg" viewBox="0 0 898.17 104.09"><defs><style>.cls-1{fill:none;stroke:#000;stroke-miterlimit:10;stroke-width:3px;}.cls-2{fill:#eac852;}</style></defs><g id="Camada_2" data-name="Camada 2"><g id="Camada_1-2" data-name="Camada 1"><path class="cls-1" d="M60.57,102V60.9L47.48,89.83H36L23,60.9V102H1.5V23.94H24.93L41.76,60.68,58.7,23.94H82V102Z"/><path class="cls-1" d="M113.48,23.94h24L162.32,102H140.54l-4-15.29H114.44l-4,15.29H88.51Zm19.25,48.51L125.47,45l-7.26,27.5Z"/><path class="cls-1" d="M161.33,62.22a38.3,38.3,0,0,1,2.69-14,39.7,39.7,0,0,1,7.87-12.48,38.18,38.18,0,0,1,12.59-9,40.26,40.26,0,0,1,16.78-3.36,39.45,39.45,0,0,1,19.58,4.68,30.41,30.41,0,0,1,12.43,12.37L216.88,52.1a13,13,0,0,0-4.13-5.94,16,16,0,0,0-5.83-2.91,23.48,23.48,0,0,0-6.1-.83,16.44,16.44,0,0,0-8,1.82,16.1,16.1,0,0,0-5.5,4.78,21.26,21.26,0,0,0-3.19,6.6,26.38,26.38,0,0,0-1,7.26,25.11,25.11,0,0,0,1.21,7.81,20.87,20.87,0,0,0,3.52,6.65,16.32,16.32,0,0,0,5.66,4.57A16.87,16.87,0,0,0,201,83.56a20.58,20.58,0,0,0,6.05-.94,16.1,16.1,0,0,0,5.61-3A13,13,0,0,0,216.55,74L234,84.44a23,23,0,0,1-7.7,9.79,40.45,40.45,0,0,1-12.21,6.22,44.93,44.93,0,0,1-13.53,2.14,36.22,36.22,0,0,1-15.9-3.47,39.83,39.83,0,0,1-12.43-9.23,42.62,42.62,0,0,1-8.08-13A39.46,39.46,0,0,1,161.33,62.22Z"/><path class="cls-1" d="M241.63,102V23.94h35.86a24.22,24.22,0,0,1,10.56,2.31,26.65,26.65,0,0,1,8.36,6.21,29.06,29.06,0,0,1,5.44,8.75A26.38,26.38,0,0,1,303.78,51a28.69,28.69,0,0,1-1.32,8.69,26.4,26.4,0,0,1-3.85,7.64,26.91,26.91,0,0,1-6.05,6L309.06,102H285.52l-13.75-24h-8.69v24Zm21.45-42.68h13.53a4,4,0,0,0,2.53-1,7.58,7.58,0,0,0,2-2.86A11.14,11.14,0,0,0,282,51a10,10,0,0,0-.94-4.57,7.73,7.73,0,0,0-2.31-2.8,4.62,4.62,0,0,0-2.69-1h-13Z"/><path class="cls-1" d="M350.09,102.59a38.19,38.19,0,0,1-16.17-3.35,39.21,39.21,0,0,1-12.49-9,40.85,40.85,0,0,1-8-12.75,39.62,39.62,0,0,1-2.8-14.69,37.79,37.79,0,0,1,3-14.85,41.19,41.19,0,0,1,8.3-12.59,39,39,0,0,1,12.65-8.75,39.56,39.56,0,0,1,16-3.19,37.77,37.77,0,0,1,28.6,12.43,42.1,42.1,0,0,1,8,12.82,39.28,39.28,0,0,1,2.81,14.57A38,38,0,0,1,387,78a40.15,40.15,0,0,1-8.25,12.59,39.51,39.51,0,0,1-12.59,8.8A38.83,38.83,0,0,1,350.09,102.59ZM332.38,63a26.41,26.41,0,0,0,1.1,7.65,20.66,20.66,0,0,0,3.3,6.6,15.68,15.68,0,0,0,5.55,4.61,19.34,19.34,0,0,0,16,0A15.25,15.25,0,0,0,363.89,77a21.8,21.8,0,0,0,3.19-6.7,27.4,27.4,0,0,0,1.05-7.54,26.14,26.14,0,0,0-1.1-7.59,21,21,0,0,0-3.3-6.54,15.21,15.21,0,0,0-5.61-4.57,18,18,0,0,0-7.92-1.65,17,17,0,0,0-8,1.76,16.37,16.37,0,0,0-5.55,4.67,19.91,19.91,0,0,0-3.25,6.61A27.65,27.65,0,0,0,332.38,63Z"/><path class="cls-1" d="M399,102V23.94H432.7a24.22,24.22,0,0,1,10.56,2.31,26.65,26.65,0,0,1,8.36,6.21,29.06,29.06,0,0,1,5.44,8.75A26.38,26.38,0,0,1,459,51a28,28,0,0,1-12.27,23.16,23.49,23.49,0,0,1-13.47,3.9H420.49v24Zm21.45-42.68h11.33a4.68,4.68,0,0,0,2.53-.77,5.76,5.76,0,0,0,2-2.64,12.44,12.44,0,0,0,.83-5,11.22,11.22,0,0,0-.94-5.11A5.56,5.56,0,0,0,434,43.35a5.88,5.88,0,0,0-2.69-.71H420.49Z"/><path class="cls-1" d="M502.77,102.59a38.19,38.19,0,0,1-16.17-3.35,39.1,39.1,0,0,1-12.49-9,40.85,40.85,0,0,1-8-12.75,39.62,39.62,0,0,1-2.8-14.69,37.79,37.79,0,0,1,3-14.85,41,41,0,0,1,8.3-12.59,38.84,38.84,0,0,1,12.65-8.75,39.56,39.56,0,0,1,16-3.19,37.77,37.77,0,0,1,28.6,12.43,42.1,42.1,0,0,1,8,12.82,39.28,39.28,0,0,1,2.81,14.57A38.22,38.22,0,0,1,539.67,78a40.15,40.15,0,0,1-8.25,12.59,39.62,39.62,0,0,1-12.59,8.8A38.83,38.83,0,0,1,502.77,102.59ZM485.06,63a26.41,26.41,0,0,0,1.1,7.65,20.66,20.66,0,0,0,3.3,6.6A15.68,15.68,0,0,0,495,81.85a19.34,19.34,0,0,0,16,0A15.25,15.25,0,0,0,516.57,77a21.8,21.8,0,0,0,3.19-6.7,27.4,27.4,0,0,0,1-7.54,26.14,26.14,0,0,0-1.1-7.59,21,21,0,0,0-3.3-6.54,15.21,15.21,0,0,0-5.61-4.57,18,18,0,0,0-7.92-1.65,17,17,0,0,0-8,1.76,16.27,16.27,0,0,0-5.55,4.67,19.91,19.91,0,0,0-3.25,6.61A27.27,27.27,0,0,0,485.06,63Z"/><path class="cls-1" d="M551.72,102V23.94h21.45v59.4h35.42V102Z"/><path class="cls-1" d="M616.07,102V23.94h21.45V102Zm17.26-81.4-13.2-3.52,5.5-15.62h18.6Z"/><path class="cls-1" d="M711.76,42.64H689.32V102H667.87V42.64H645.32V23.94h66.44Z"/><path class="cls-1" d="M719.57,102V23.94H741V102Z"/><path class="cls-1" d="M750.15,62.22a38.1,38.1,0,0,1,2.7-14,39.49,39.49,0,0,1,7.86-12.48,38.33,38.33,0,0,1,12.6-9,40.24,40.24,0,0,1,16.77-3.36,39.42,39.42,0,0,1,19.58,4.68,30.35,30.35,0,0,1,12.43,12.37L805.7,52.1a13,13,0,0,0-4.12-5.94,16.06,16.06,0,0,0-5.83-2.91,23.56,23.56,0,0,0-6.11-.83,16.38,16.38,0,0,0-8,1.82,16,16,0,0,0-5.5,4.78,21,21,0,0,0-3.19,6.6,26,26,0,0,0-1.05,7.26,25.11,25.11,0,0,0,1.21,7.81,21.07,21.07,0,0,0,3.52,6.65,16.26,16.26,0,0,0,5.67,4.57,16.79,16.79,0,0,0,7.53,1.65,20.53,20.53,0,0,0,6-.94,16.1,16.1,0,0,0,5.61-3A13,13,0,0,0,805.37,74l17.49,10.45a23,23,0,0,1-7.7,9.79A40.22,40.22,0,0,1,803,100.45a44.93,44.93,0,0,1-13.53,2.14,36.17,36.17,0,0,1-15.89-3.47,39.6,39.6,0,0,1-12.43-9.23,42.65,42.65,0,0,1-8.09-13A39.46,39.46,0,0,1,750.15,62.22Z"/><path class="cls-1" d="M847.28,23.94h24L896.12,102H874.34l-4-15.29H848.24l-4,15.29H822.31Zm19.25,48.51L859.27,45,852,72.45Z"/><path class="cls-2" d="M60.57,102V60.9L47.48,89.83H36L23,60.9V102H1.5V23.94H24.93L41.76,60.68,58.7,23.94H82V102Z"/><path class="cls-2" d="M113.48,23.94h24L162.32,102H140.54l-4-15.29H114.44l-4,15.29H88.51Zm19.25,48.51L125.47,45l-7.26,27.5Z"/><path class="cls-2" d="M161.33,62.22a38.3,38.3,0,0,1,2.69-14,39.7,39.7,0,0,1,7.87-12.48,38.18,38.18,0,0,1,12.59-9,40.26,40.26,0,0,1,16.78-3.36,39.45,39.45,0,0,1,19.58,4.68,30.41,30.41,0,0,1,12.43,12.37L216.88,52.1a13,13,0,0,0-4.13-5.94,16,16,0,0,0-5.83-2.91,23.48,23.48,0,0,0-6.1-.83,16.44,16.44,0,0,0-8,1.82,16.1,16.1,0,0,0-5.5,4.78,21.26,21.26,0,0,0-3.19,6.6,26.38,26.38,0,0,0-1,7.26,25.11,25.11,0,0,0,1.21,7.81,20.87,20.87,0,0,0,3.52,6.65,16.32,16.32,0,0,0,5.66,4.57A16.87,16.87,0,0,0,201,83.56a20.58,20.58,0,0,0,6.05-.94,16.1,16.1,0,0,0,5.61-3A13,13,0,0,0,216.55,74L234,84.44a23,23,0,0,1-7.7,9.79,40.45,40.45,0,0,1-12.21,6.22,44.93,44.93,0,0,1-13.53,2.14,36.22,36.22,0,0,1-15.9-3.47,39.83,39.83,0,0,1-12.43-9.23,42.62,42.62,0,0,1-8.08-13A39.46,39.46,0,0,1,161.33,62.22Z"/><path class="cls-2" d="M241.63,102V23.94h35.86a24.22,24.22,0,0,1,10.56,2.31,26.65,26.65,0,0,1,8.36,6.21,29.06,29.06,0,0,1,5.44,8.75A26.38,26.38,0,0,1,303.78,51a28.69,28.69,0,0,1-1.32,8.69,26.4,26.4,0,0,1-3.85,7.64,26.91,26.91,0,0,1-6.05,6L309.06,102H285.52l-13.75-24h-8.69v24Zm21.45-42.68h13.53a4,4,0,0,0,2.53-1,7.58,7.58,0,0,0,2-2.86A11.14,11.14,0,0,0,282,51a10,10,0,0,0-.94-4.57,7.73,7.73,0,0,0-2.31-2.8,4.62,4.62,0,0,0-2.69-1h-13Z"/><path class="cls-2" d="M350.09,102.59a38.19,38.19,0,0,1-16.17-3.35,39.21,39.21,0,0,1-12.49-9,40.85,40.85,0,0,1-8-12.75,39.62,39.62,0,0,1-2.8-14.69,37.79,37.79,0,0,1,3-14.85,41.19,41.19,0,0,1,8.3-12.59,39,39,0,0,1,12.65-8.75,39.56,39.56,0,0,1,16-3.19,37.77,37.77,0,0,1,28.6,12.43,42.1,42.1,0,0,1,8,12.82,39.28,39.28,0,0,1,2.81,14.57A38,38,0,0,1,387,78a40.15,40.15,0,0,1-8.25,12.59,39.51,39.51,0,0,1-12.59,8.8A38.83,38.83,0,0,1,350.09,102.59ZM332.38,63a26.41,26.41,0,0,0,1.1,7.65,20.66,20.66,0,0,0,3.3,6.6,15.68,15.68,0,0,0,5.55,4.61,19.34,19.34,0,0,0,16,0A15.25,15.25,0,0,0,363.89,77a21.8,21.8,0,0,0,3.19-6.7,27.4,27.4,0,0,0,1.05-7.54,26.14,26.14,0,0,0-1.1-7.59,21,21,0,0,0-3.3-6.54,15.21,15.21,0,0,0-5.61-4.57,18,18,0,0,0-7.92-1.65,17,17,0,0,0-8,1.76,16.37,16.37,0,0,0-5.55,4.67,19.91,19.91,0,0,0-3.25,6.61A27.65,27.65,0,0,0,332.38,63Z"/><path class="cls-2" d="M399,102V23.94H432.7a24.22,24.22,0,0,1,10.56,2.31,26.65,26.65,0,0,1,8.36,6.21,29.06,29.06,0,0,1,5.44,8.75A26.38,26.38,0,0,1,459,51a28,28,0,0,1-12.27,23.16,23.49,23.49,0,0,1-13.47,3.9H420.49v24Zm21.45-42.68h11.33a4.68,4.68,0,0,0,2.53-.77,5.76,5.76,0,0,0,2-2.64,12.44,12.44,0,0,0,.83-5,11.22,11.22,0,0,0-.94-5.11A5.56,5.56,0,0,0,434,43.35a5.88,5.88,0,0,0-2.69-.71H420.49Z"/><path class="cls-2" d="M502.77,102.59a38.19,38.19,0,0,1-16.17-3.35,39.1,39.1,0,0,1-12.49-9,40.85,40.85,0,0,1-8-12.75,39.62,39.62,0,0,1-2.8-14.69,37.79,37.79,0,0,1,3-14.85,41,41,0,0,1,8.3-12.59,38.84,38.84,0,0,1,12.65-8.75,39.56,39.56,0,0,1,16-3.19,37.77,37.77,0,0,1,28.6,12.43,42.1,42.1,0,0,1,8,12.82,39.28,39.28,0,0,1,2.81,14.57A38.22,38.22,0,0,1,539.67,78a40.15,40.15,0,0,1-8.25,12.59,39.62,39.62,0,0,1-12.59,8.8A38.83,38.83,0,0,1,502.77,102.59ZM485.06,63a26.41,26.41,0,0,0,1.1,7.65,20.66,20.66,0,0,0,3.3,6.6A15.68,15.68,0,0,0,495,81.85a19.34,19.34,0,0,0,16,0A15.25,15.25,0,0,0,516.57,77a21.8,21.8,0,0,0,3.19-6.7,27.4,27.4,0,0,0,1-7.54,26.14,26.14,0,0,0-1.1-7.59,21,21,0,0,0-3.3-6.54,15.21,15.21,0,0,0-5.61-4.57,18,18,0,0,0-7.92-1.65,17,17,0,0,0-8,1.76,16.27,16.27,0,0,0-5.55,4.67,19.91,19.91,0,0,0-3.25,6.61A27.27,27.27,0,0,0,485.06,63Z"/><path class="cls-2" d="M551.72,102V23.94h21.45v59.4h35.42V102Z"/><path class="cls-2" d="M616.07,102V23.94h21.45V102Zm17.26-81.4-13.2-3.52,5.5-15.62h18.6Z"/><path class="cls-2" d="M711.76,42.64H689.32V102H667.87V42.64H645.32V23.94h66.44Z"/><path class="cls-2" d="M719.57,102V23.94H741V102Z"/><path class="cls-2" d="M750.15,62.22a38.1,38.1,0,0,1,2.7-14,39.49,39.49,0,0,1,7.86-12.48,38.33,38.33,0,0,1,12.6-9,40.24,40.24,0,0,1,16.77-3.36,39.42,39.42,0,0,1,19.58,4.68,30.35,30.35,0,0,1,12.43,12.37L805.7,52.1a13,13,0,0,0-4.12-5.94,16.06,16.06,0,0,0-5.83-2.91,23.56,23.56,0,0,0-6.11-.83,16.38,16.38,0,0,0-8,1.82,16,16,0,0,0-5.5,4.78,21,21,0,0,0-3.19,6.6,26,26,0,0,0-1.05,7.26,25.11,25.11,0,0,0,1.21,7.81,21.07,21.07,0,0,0,3.52,6.65,16.26,16.26,0,0,0,5.67,4.57,16.79,16.79,0,0,0,7.53,1.65,20.53,20.53,0,0,0,6-.94,16.1,16.1,0,0,0,5.61-3A13,13,0,0,0,805.37,74l17.49,10.45a23,23,0,0,1-7.7,9.79A40.22,40.22,0,0,1,803,100.45a44.93,44.93,0,0,1-13.53,2.14,36.17,36.17,0,0,1-15.89-3.47,39.6,39.6,0,0,1-12.43-9.23,42.65,42.65,0,0,1-8.09-13A39.46,39.46,0,0,1,750.15,62.22Z"/><path class="cls-2" d="M847.28,23.94h24L896.12,102H874.34l-4-15.29H848.24l-4,15.29H822.31Zm19.25,48.51L859.27,45,852,72.45Z"/></g></g></svg>