<svg xmlns="http://www.w3.org/2000/svg" viewBox="0 0 854.06 82.2"><defs><style>.cls-1{fill:none;stroke:#000;stroke-miterlimit:10;stroke-width:3px;}.cls-2{fill:#eac852;}</style></defs><g id="Camada_2" data-name="Camada 2"><g id="Camada_1-2" data-name="Camada 1"><path class="cls-1" d="M60.57,80.15V39L47.48,67.94H36L23,39V80.15H1.5V2.05H24.93L41.76,38.79,58.7,2.05H82v78.1Z"/><path class="cls-1" d="M151.1,61.45v18.7H95.44V2.05h54.67v18.7H116.89v11h28.38V49.13H116.89V61.45Z"/><path class="cls-1" d="M161.11,80.15V2.05h21.45v78.1Z"/><path class="cls-1" d="M231.18,80.7A38,38,0,0,1,215,77.34a38.92,38.92,0,0,1-12.49-9,40.78,40.78,0,0,1-8-12.76,39.57,39.57,0,0,1-2.8-14.68,37.79,37.79,0,0,1,3-14.85,41.18,41.18,0,0,1,8.3-12.6,39,39,0,0,1,12.65-8.74,39.56,39.56,0,0,1,16-3.19,37.68,37.68,0,0,1,28.6,12.43,42.05,42.05,0,0,1,8,12.81A39.33,39.33,0,0,1,271,41.32a38.22,38.22,0,0,1-2.92,14.74,40.15,40.15,0,0,1-8.25,12.59,39.62,39.62,0,0,1-12.59,8.8A38.83,38.83,0,0,1,231.18,80.7ZM213.47,41.1a26.29,26.29,0,0,0,1.1,7.64,20.46,20.46,0,0,0,3.3,6.6A15.6,15.6,0,0,0,223.42,60a19.34,19.34,0,0,0,16-.05A15.25,15.25,0,0,0,245,55.12a21.74,21.74,0,0,0,3.19-6.71,27.28,27.28,0,0,0,1.05-7.53,26.14,26.14,0,0,0-1.1-7.59,21.14,21.14,0,0,0-3.3-6.55,15.28,15.28,0,0,0-5.61-4.56,18,18,0,0,0-7.92-1.65,17,17,0,0,0-8,1.76A16.27,16.27,0,0,0,217.76,27a20,20,0,0,0-3.25,6.6A27.39,27.39,0,0,0,213.47,41.1Z"/><path class="cls-1" d="M319.61,2.05h24l24.86,78.1H346.67l-4-15.29H320.57l-4,15.29H294.64Zm19.25,48.51-7.26-27.5-7.25,27.5Z"/><path class="cls-1" d="M434,80.15V39L420.92,67.94H409.48L396.39,39V80.15H374.94V2.05h23.43L415.2,38.79,432.14,2.05h23.32v78.1Z"/><path class="cls-1" d="M535.32,60.13q0,7-3.79,11.44a22.24,22.24,0,0,1-10.18,6.49,45.13,45.13,0,0,1-14.08,2.09H468.88V2.05H514.2A15.79,15.79,0,0,1,523.72,5a19.18,19.18,0,0,1,6.16,7.54A22.48,22.48,0,0,1,532,22.07a21.28,21.28,0,0,1-2.8,10.45,17.6,17.6,0,0,1-8.42,7.59A20.53,20.53,0,0,1,531.42,47Q535.32,52,535.32,60.13Zm-45-39.82v12H505a7.79,7.79,0,0,0,2.75-.5,4.55,4.55,0,0,0,2.2-1.81,6.69,6.69,0,0,0,.88-3.74,7.18,7.18,0,0,0-.71-3.47,4.67,4.67,0,0,0-1.87-1.87,5.55,5.55,0,0,0-2.59-.6Zm23.21,35.42a8,8,0,0,0-.71-3.47,6.18,6.18,0,0,0-1.93-2.36A4.72,4.72,0,0,0,508,49H490.33V62.11h16.94a6.66,6.66,0,0,0,3.19-.77,5.69,5.69,0,0,0,2.26-2.2A6.7,6.7,0,0,0,513.54,55.73Z"/><path class="cls-1" d="M544.78,80.15V2.05h21.45v78.1Z"/><path class="cls-1" d="M635.31,61.45v18.7H579.65V2.05h54.67v18.7H601.1v11h28.38V49.13H601.1V61.45Z"/><path class="cls-1" d="M666.77,41.76V80.15H645.32V2.05H662l31.35,39.71V2.05h21.45v78.1H697.79Z"/><path class="cls-1" d="M789.09,20.75H766.65v59.4H745.2V20.75H722.65V2.05h66.44Z"/><path class="cls-1" d="M852.56,61.45v18.7H796.9V2.05h54.67v18.7H818.35v11h28.38V49.13H818.35V61.45Z"/><path class="cls-2" d="M60.57,80.15V39L47.48,67.94H36L23,39V80.15H1.5V2.05H24.93L41.76,38.79,58.7,2.05H82v78.1Z"/><path class="cls-2" d="M151.1,61.45v18.7H95.44V2.05h54.67v18.7H116.89v11h28.38V49.13H116.89V61.45Z"/><path class="cls-2" d="M161.11,80.15V2.05h21.45v78.1Z"/><path class="cls-2" d="M231.18,80.7A38,38,0,0,1,215,77.34a38.92,38.92,0,0,1-12.49-9,40.78,40.78,0,0,1-8-12.76,39.57,39.57,0,0,1-2.8-14.68,37.79,37.79,0,0,1,3-14.85,41.18,41.18,0,0,1,8.3-12.6,39,39,0,0,1,12.65-8.74,39.56,39.56,0,0,1,16-3.19,37.68,37.68,0,0,1,28.6,12.43,42.05,42.05,0,0,1,8,12.81A39.33,39.33,0,0,1,271,41.32a38.22,38.22,0,0,1-2.92,14.74,40.15,40.15,0,0,1-8.25,12.59,39.62,39.62,0,0,1-12.59,8.8A38.83,38.83,0,0,1,231.18,80.7ZM213.47,41.1a26.29,26.29,0,0,0,1.1,7.64,20.46,20.46,0,0,0,3.3,6.6A15.6,15.6,0,0,0,223.42,60a19.34,19.34,0,0,0,16-.05A15.25,15.25,0,0,0,245,55.12a21.74,21.74,0,0,0,3.19-6.71,27.28,27.28,0,0,0,1.05-7.53,26.14,26.14,0,0,0-1.1-7.59,21.14,21.14,0,0,0-3.3-6.55,15.28,15.28,0,0,0-5.61-4.56,18,18,0,0,0-7.92-1.65,17,17,0,0,0-8,1.76A16.27,16.27,0,0,0,217.76,27a20,20,0,0,0-3.25,6.6A27.39,27.39,0,0,0,213.47,41.1Z"/><path class="cls-2" d="M319.61,2.05h24l24.86,78.1H346.67l-4-15.29H320.57l-4,15.29H294.64Zm19.25,48.51-7.26-27.5-7.25,27.5Z"/><path class="cls-2" d="M434,80.15V39L420.92,67.94H409.48L396.39,39V80.15H374.94V2.05h23.43L415.2,38.79,432.14,2.05h23.32v78.1Z"/><path class="cls-2" d="M535.32,60.13q0,7-3.79,11.44a22.24,22.24,0,0,1-10.18,6.49,45.13,45.13,0,0,1-14.08,2.09H468.88V2.05H514.2A15.79,15.79,0,0,1,523.72,5a19.18,19.18,0,0,1,6.16,7.54A22.48,22.48,0,0,1,532,22.07a21.28,21.28,0,0,1-2.8,10.45,17.6,17.6,0,0,1-8.42,7.59A20.53,20.53,0,0,1,531.42,47Q535.32,52,535.32,60.13Zm-45-39.82v12H505a7.79,7.79,0,0,0,2.75-.5,4.55,4.55,0,0,0,2.2-1.81,6.69,6.69,0,0,0,.88-3.74,7.18,7.18,0,0,0-.71-3.47,4.67,4.67,0,0,0-1.87-1.87,5.55,5.55,0,0,0-2.59-.6Zm23.21,35.42a8,8,0,0,0-.71-3.47,6.18,6.18,0,0,0-1.93-2.36A4.72,4.72,0,0,0,508,49H490.33V62.11h16.94a6.66,6.66,0,0,0,3.19-.77,5.69,5.69,0,0,0,2.26-2.2A6.7,6.7,0,0,0,513.54,55.73Z"/><path class="cls-2" d="M544.78,80.15V2.05h21.45v78.1Z"/><path class="cls-2" d="M635.31,61.45v18.7H579.65V2.05h54.67v18.7H601.1v11h28.38V49.13H601.1V61.45Z"/><path class="cls-2" d="M666.77,41.76V80.15H645.32V2.05H662l31.35,39.71V2.05h21.45v78.1H697.79Z"/><path class="cls-2" d="M789.09,20.75H766.65v59.4H745.2V20.75H722.65V2.05h66.44Z"/><path class="cls-2" d="M852.56,61.45v18.7H796.9V2.05h54.67v18.7H818.35v11h28.38V49.13H818.35V61.45Z"/></g></g></svg>