<svg xmlns="http://www.w3.org/2000/svg" viewBox="0 0 361.18 104.09"><defs><style>.cls-1{fill:none;stroke:#000;stroke-miterlimit:10;stroke-width:3px;}.cls-2{fill:#eac852;}</style></defs><g id="Camada_2" data-name="Camada 2"><g id="Camada_1-2" data-name="Camada 1"><path class="cls-1" d="M54.54,49.57A66.37,66.37,0,0,0,47.72,46,55.67,55.67,0,0,0,41,43.52a24.66,24.66,0,0,0-7.15-1.1,10.21,10.21,0,0,0-4.51.87,3,3,0,0,0-1.76,3,3.68,3.68,0,0,0,1.76,3.16,18.85,18.85,0,0,0,5,2.18c2.16.65,4.75,1.45,7.75,2.4a67.6,67.6,0,0,1,12.54,5,21.68,21.68,0,0,1,8.14,7.25Q65.66,70.65,65.65,78a24.58,24.58,0,0,1-2.53,11.71,20.39,20.39,0,0,1-6.82,7.58,29.7,29.7,0,0,1-9.57,4.09A46.79,46.79,0,0,1,36,102.59a62.16,62.16,0,0,1-11.71-1.16,78.93,78.93,0,0,1-11.83-3.18A63.19,63.19,0,0,1,2,93.46L11.2,74.65a80.58,80.58,0,0,0,8,4.29,62.49,62.49,0,0,0,8.09,3,31.41,31.41,0,0,0,9,1.32c2.35,0,4-.3,4.9-.89A2.72,2.72,0,0,0,42.55,80a3.87,3.87,0,0,0-2.42-3.55A36.19,36.19,0,0,0,33.81,74c-2.61-.76-5.48-1.65-8.64-2.67A48.73,48.73,0,0,1,14,66.16a18.83,18.83,0,0,1-6.49-6.88,20.65,20.65,0,0,1-2.09-9.67q0-8.62,4.07-14.42a25.93,25.93,0,0,1,10.73-8.8,34.49,34.49,0,0,1,14.35-3,44,44,0,0,1,11.06,1.38,70.78,70.78,0,0,1,10,3.35c3.11,1.32,5.85,2.57,8.19,3.74Z"/><path class="cls-1" d="M91.17,23.94h24L140,102H118.23l-4-15.29H92.13l-4,15.29H66.2Zm19.25,48.51L103.16,45,95.9,72.45Z"/><path class="cls-1" d="M177.63,102.59a38.32,38.32,0,0,1-16.06-3.07,29.13,29.13,0,0,1-10.94-8.46,35.3,35.3,0,0,1-6.22-12.36,53.47,53.47,0,0,1-2-14.67V23.94h21.45V64a34.43,34.43,0,0,0,.77,7.35,20.83,20.83,0,0,0,2.42,6.26A12.59,12.59,0,0,0,171.31,82a11.84,11.84,0,0,0,6.32,1.59A12.36,12.36,0,0,0,184.12,82a12,12,0,0,0,4.24-4.39,22.32,22.32,0,0,0,2.36-6.32,33.32,33.32,0,0,0,.77-7.24V23.94h21.45V64a51.68,51.68,0,0,1-2.14,15.16,35.88,35.88,0,0,1-6.44,12.31,28.71,28.71,0,0,1-10.94,8.18A39.22,39.22,0,0,1,177.63,102.59Zm6.6-81.95L171,17.12l5.5-15.62h18.59Z"/><path class="cls-1" d="M225.26,102V23.94h30q13,0,21.73,5.23a33.82,33.82,0,0,1,13.2,14.08,43,43,0,0,1,4.45,19.63q0,11.88-4.89,20.68A34.25,34.25,0,0,1,276,97.2Q267.17,102,255.29,102Zm47.63-39.16a25.14,25.14,0,0,0-2.09-10.61,16.16,16.16,0,0,0-6.05-7.1,17.16,17.16,0,0,0-9.46-2.53h-8.58v40.7h8.58a16.62,16.62,0,0,0,9.52-2.64,17,17,0,0,0,6-7.31A25.38,25.38,0,0,0,272.89,62.88Z"/><path class="cls-1" d="M359.68,83.34V102H304V23.94h54.67v18.7H325.47v11h28.38V71H325.47V83.34Z"/><path class="cls-2" d="M54.54,49.57A66.37,66.37,0,0,0,47.72,46,55.67,55.67,0,0,0,41,43.52a24.66,24.66,0,0,0-7.15-1.1,10.21,10.21,0,0,0-4.51.87,3,3,0,0,0-1.76,3,3.68,3.68,0,0,0,1.76,3.16,18.85,18.85,0,0,0,5,2.18c2.16.65,4.75,1.45,7.75,2.4a67.6,67.6,0,0,1,12.54,5,21.68,21.68,0,0,1,8.14,7.25Q65.66,70.65,65.65,78a24.58,24.58,0,0,1-2.53,11.71,20.39,20.39,0,0,1-6.82,7.58,29.7,29.7,0,0,1-9.57,4.09A46.79,46.79,0,0,1,36,102.59a62.16,62.16,0,0,1-11.71-1.16,78.93,78.93,0,0,1-11.83-3.18A63.19,63.19,0,0,1,2,93.46L11.2,74.65a80.58,80.58,0,0,0,8,4.29,62.49,62.49,0,0,0,8.09,3,31.41,31.41,0,0,0,9,1.32c2.35,0,4-.3,4.9-.89A2.72,2.72,0,0,0,42.55,80a3.87,3.87,0,0,0-2.42-3.55A36.19,36.19,0,0,0,33.81,74c-2.61-.76-5.48-1.65-8.64-2.67A48.73,48.73,0,0,1,14,66.16a18.83,18.83,0,0,1-6.49-6.88,20.65,20.65,0,0,1-2.09-9.67q0-8.62,4.07-14.42a25.93,25.93,0,0,1,10.73-8.8,34.49,34.49,0,0,1,14.35-3,44,44,0,0,1,11.06,1.38,70.78,70.78,0,0,1,10,3.35c3.11,1.32,5.85,2.57,8.19,3.74Z"/><path class="cls-2" d="M91.17,23.94h24L140,102H118.23l-4-15.29H92.13l-4,15.29H66.2Zm19.25,48.51L103.16,45,95.9,72.45Z"/><path class="cls-2" d="M177.63,102.59a38.32,38.32,0,0,1-16.06-3.07,29.13,29.13,0,0,1-10.94-8.46,35.3,35.3,0,0,1-6.22-12.36,53.47,53.47,0,0,1-2-14.67V23.94h21.45V64a34.43,34.43,0,0,0,.77,7.35,20.83,20.83,0,0,0,2.42,6.26A12.59,12.59,0,0,0,171.31,82a11.84,11.84,0,0,0,6.32,1.59A12.36,12.36,0,0,0,184.12,82a12,12,0,0,0,4.24-4.39,22.32,22.32,0,0,0,2.36-6.32,33.32,33.32,0,0,0,.77-7.24V23.94h21.45V64a51.68,51.68,0,0,1-2.14,15.16,35.88,35.88,0,0,1-6.44,12.31,28.71,28.71,0,0,1-10.94,8.18A39.22,39.22,0,0,1,177.63,102.59Zm6.6-81.95L171,17.12l5.5-15.62h18.59Z"/><path class="cls-2" d="M225.26,102V23.94h30q13,0,21.73,5.23a33.82,33.82,0,0,1,13.2,14.08,43,43,0,0,1,4.45,19.63q0,11.88-4.89,20.68A34.25,34.25,0,0,1,276,97.2Q267.17,102,255.29,102Zm47.63-39.16a25.14,25.14,0,0,0-2.09-10.61,16.16,16.16,0,0,0-6.05-7.1,17.16,17.16,0,0,0-9.46-2.53h-8.58v40.7h8.58a16.62,16.62,0,0,0,9.52-2.64,17,17,0,0,0,6-7.31A25.38,25.38,0,0,0,272.89,62.88Z"/><path class="cls-2" d="M359.68,83.34V102H304V23.94h54.67v18.7H325.47v11h28.38V71H325.47V83.34Z"/></g></g></svg>