<svg xmlns="http://www.w3.org/2000/svg" viewBox="0 0 894.65 237.85"><defs><style>.cls-1{fill:none;stroke:#000;stroke-miterlimit:10;stroke-width:3px;}.cls-2{fill:#eac852;}</style></defs><g id="Camada_2" data-name="Camada 2"><g id="Camada_1-2" data-name="Camada 1"><path class="cls-1" d="M145.38,20.75H122.94v59.4H101.49V20.75H78.94V2.05h66.44Z"/><path class="cls-1" d="M208.85,61.45v18.7H153.19V2.05h54.67v18.7H174.64v11H203V49.13H174.64V61.45Z"/><path class="cls-1" d="M213.36,40.33a38.3,38.3,0,0,1,2.69-14,39.7,39.7,0,0,1,7.87-12.48,38.29,38.29,0,0,1,12.59-9A40.26,40.26,0,0,1,253.29,1.5a39.55,39.55,0,0,1,19.58,4.67A30.49,30.49,0,0,1,285.3,18.55L268.91,30.21a13,13,0,0,0-4.13-5.94A16,16,0,0,0,259,21.36a23.48,23.48,0,0,0-6.1-.83,16.56,16.56,0,0,0-8,1.81,16.24,16.24,0,0,0-5.5,4.79,21.26,21.26,0,0,0-3.19,6.6,26.38,26.38,0,0,0-1,7.26,25.11,25.11,0,0,0,1.21,7.81,21.23,21.23,0,0,0,3.52,6.66A16.4,16.4,0,0,0,245.53,60a16.87,16.87,0,0,0,7.54,1.65,20.58,20.58,0,0,0,6.05-.94,16.1,16.1,0,0,0,5.61-3,13,13,0,0,0,3.85-5.61l17.49,10.45a23,23,0,0,1-7.7,9.79,40.09,40.09,0,0,1-12.21,6.21,45,45,0,0,1-13.53,2.15,36.22,36.22,0,0,1-15.9-3.47A40.14,40.14,0,0,1,224.3,68a42.74,42.74,0,0,1-8.08-13A39.46,39.46,0,0,1,213.36,40.33Z"/><path class="cls-1" d="M315.11,41.76V80.15H293.66V2.05h16.72l31.35,39.71V2.05h21.45v78.1H346.13Z"/><path class="cls-1" d="M411.8,80.7a38.19,38.19,0,0,1-16.17-3.35,39.1,39.1,0,0,1-12.49-9,40.78,40.78,0,0,1-8-12.76,39.57,39.57,0,0,1-2.8-14.68,37.79,37.79,0,0,1,3-14.85,41.19,41.19,0,0,1,8.3-12.59,39,39,0,0,1,12.65-8.75,39.56,39.56,0,0,1,16-3.19,37.77,37.77,0,0,1,28.6,12.43,42.1,42.1,0,0,1,8,12.82,39.24,39.24,0,0,1,2.81,14.57,38,38,0,0,1-2.92,14.74,40.15,40.15,0,0,1-8.25,12.59,39.7,39.7,0,0,1-12.59,8.81A39,39,0,0,1,411.8,80.7ZM394.09,41.1a26.41,26.41,0,0,0,1.1,7.65,20.51,20.51,0,0,0,3.3,6.59A15.6,15.6,0,0,0,404,60a19.34,19.34,0,0,0,16-.05,15.25,15.25,0,0,0,5.55-4.79,21.8,21.8,0,0,0,3.19-6.7,27.4,27.4,0,0,0,1-7.54,26.14,26.14,0,0,0-1.1-7.59,21,21,0,0,0-3.3-6.54,15.21,15.21,0,0,0-5.61-4.57,18,18,0,0,0-7.92-1.65,17,17,0,0,0-8,1.76A16.37,16.37,0,0,0,398.38,27a20,20,0,0,0-3.25,6.6A27.78,27.78,0,0,0,394.09,41.1Z"/><path class="cls-1" d="M460.75,80.15V2.05H482.2v59.4h35.42v18.7Z"/><path class="cls-1" d="M559.31,80.7a38.19,38.19,0,0,1-16.17-3.35,39.21,39.21,0,0,1-12.49-9,40.78,40.78,0,0,1-8-12.76,39.57,39.57,0,0,1-2.8-14.68,37.79,37.79,0,0,1,3-14.85,41.19,41.19,0,0,1,8.3-12.59,39,39,0,0,1,12.65-8.75,39.56,39.56,0,0,1,16-3.19,37.77,37.77,0,0,1,28.6,12.43,42.1,42.1,0,0,1,8,12.82,39.24,39.24,0,0,1,2.81,14.57,38,38,0,0,1-2.92,14.74A40.15,40.15,0,0,1,588,68.65a39.7,39.7,0,0,1-12.59,8.81A39,39,0,0,1,559.31,80.7ZM541.6,41.1a26.41,26.41,0,0,0,1.1,7.65,20.51,20.51,0,0,0,3.3,6.59A15.69,15.69,0,0,0,551.55,60a19.34,19.34,0,0,0,16-.05,15.25,15.25,0,0,0,5.55-4.79,21.57,21.57,0,0,0,3.19-6.7,27.4,27.4,0,0,0,1.05-7.54,26.14,26.14,0,0,0-1.1-7.59,21,21,0,0,0-3.3-6.54,15.21,15.21,0,0,0-5.61-4.57,18,18,0,0,0-7.92-1.65,17,17,0,0,0-8,1.76A16.37,16.37,0,0,0,545.89,27a20,20,0,0,0-3.25,6.6A27.78,27.78,0,0,0,541.6,41.1Z"/><path class="cls-1" d="M642,80.7A39.46,39.46,0,0,1,627.56,78a35.55,35.55,0,0,1-12.15-7.93,37.48,37.48,0,0,1-8.31-12.64,44.75,44.75,0,0,1-3-17,37.6,37.6,0,0,1,3.08-15.29A39.11,39.11,0,0,1,628.39,4.47a41.13,41.13,0,0,1,15.73-3,40.14,40.14,0,0,1,19.14,4.56A29.84,29.84,0,0,1,676,18.55L660.07,30.76a18.06,18.06,0,0,0-6.93-7.43,18.57,18.57,0,0,0-9.79-2.8,15.9,15.9,0,0,0-7,1.54,17.14,17.14,0,0,0-5.56,4.29,19.17,19.17,0,0,0-3.63,6.54,26.28,26.28,0,0,0-1.26,8.31,25,25,0,0,0,1.32,8.36A19.49,19.49,0,0,0,630.86,56a16.44,16.44,0,0,0,5.67,4.19,17.9,17.9,0,0,0,7.37,1.48,20.33,20.33,0,0,0,9.9-2.59,29.16,29.16,0,0,0,8.58-7.31v20.9A29.3,29.3,0,0,1,642,80.7ZM661.28,54H646.87V38.57H679V80.15H661.28Z"/><path class="cls-1" d="M689.55,80.15V2.05H711v78.1Z"/><path class="cls-1" d="M742.46,2.05h24l24.86,78.1H769.52l-4-15.29H743.41l-4,15.29H717.49ZM761.7,50.56l-7.25-27.5-7.26,27.5Z"/><path class="cls-1" d="M1.5,212.15v-78.1h30q13,0,21.72,5.23a33.91,33.91,0,0,1,13.21,14.08A43.15,43.15,0,0,1,70.91,173q0,11.88-4.9,20.68a34.13,34.13,0,0,1-13.75,13.64q-8.85,4.84-20.73,4.84ZM49.13,173A25.3,25.3,0,0,0,47,162.38a16.16,16.16,0,0,0-6-7.1,17.16,17.16,0,0,0-9.46-2.53H23v40.7h8.58A16.57,16.57,0,0,0,41,190.81a16.87,16.87,0,0,0,6-7.32A25.46,25.46,0,0,0,49.13,173Z"/><path class="cls-1" d="M95.11,134.05h24L144,212.15H122.17l-4-15.29H96.07l-4,15.29H70.14Zm19.25,48.51-7.26-27.5-7.26,27.5Z"/><path class="cls-1" d="M171.89,212.15v-78.1h21.45v78.1Z"/><path class="cls-1" d="M228.21,173.76v38.39H206.76v-78.1h16.72l31.35,39.71V134.05h21.45v78.1h-17Z"/><path class="cls-1" d="M289.7,212.15v-78.1h53.57v18.7H311.15v13h26.18v17.38H311.15v29Z"/><path class="cls-1" d="M385.84,212.7a38.19,38.19,0,0,1-16.17-3.35,39.1,39.1,0,0,1-12.49-9,40.78,40.78,0,0,1-8-12.76,39.57,39.57,0,0,1-2.8-14.68,37.79,37.79,0,0,1,3-14.85,41,41,0,0,1,8.3-12.59,38.84,38.84,0,0,1,12.65-8.75,39.56,39.56,0,0,1,16-3.19,37.77,37.77,0,0,1,28.6,12.43,42.17,42.17,0,0,1,8,12.81,39.33,39.33,0,0,1,2.81,14.58,38.22,38.22,0,0,1-2.92,14.74,40.25,40.25,0,0,1-20.84,21.4A39,39,0,0,1,385.84,212.7Zm-17.71-39.6a26.29,26.29,0,0,0,1.1,7.64,20.61,20.61,0,0,0,3.3,6.61,15.68,15.68,0,0,0,5.55,4.61,19.34,19.34,0,0,0,16-.05,15.25,15.25,0,0,0,5.55-4.79,21.74,21.74,0,0,0,3.19-6.71,27.28,27.28,0,0,0,1.05-7.53,26.14,26.14,0,0,0-1.1-7.59,21.14,21.14,0,0,0-3.3-6.55,15.28,15.28,0,0,0-5.61-4.56,18,18,0,0,0-7.92-1.65,17,17,0,0,0-8,1.76,16.27,16.27,0,0,0-5.55,4.67,20,20,0,0,0-3.25,6.6A27.39,27.39,0,0,0,368.13,173.1Z"/><path class="cls-1" d="M434.79,212.15v-78.1h35.86a24.22,24.22,0,0,1,10.56,2.31,26.65,26.65,0,0,1,8.36,6.21,29.06,29.06,0,0,1,5.44,8.75,26.38,26.38,0,0,1,1.93,9.79,28.69,28.69,0,0,1-1.32,8.69,26.58,26.58,0,0,1-3.85,7.65,27.08,27.08,0,0,1-6,6l16.5,28.71H478.68l-13.75-24h-8.69v24Zm21.45-42.68h13.53a4,4,0,0,0,2.53-1,7.58,7.58,0,0,0,2-2.86,11.14,11.14,0,0,0,.83-4.51,10,10,0,0,0-.94-4.57,7.65,7.65,0,0,0-2.31-2.8,4.62,4.62,0,0,0-2.69-1h-13Z"/><path class="cls-1" d="M568.1,212.15V171L555,199.94H543.57L530.48,171v41.14H509v-78.1h23.43l16.83,36.74,16.94-36.74h23.32v78.1Z"/><path class="cls-1" d="M621,134.05h24l24.86,78.1H648.07l-4-15.29H622l-4,15.29H596Zm19.25,48.51L633,155.06l-7.25,27.5Z"/><path class="cls-1" d="M668.86,172.33a38.1,38.1,0,0,1,2.7-14,39.67,39.67,0,0,1,7.86-12.48,38.33,38.33,0,0,1,12.6-9,40.24,40.24,0,0,1,16.77-3.36,39.42,39.42,0,0,1,19.58,4.68,30.29,30.29,0,0,1,12.43,12.37l-16.39,11.66a13,13,0,0,0-4.12-5.94,16.06,16.06,0,0,0-5.83-2.91,23.56,23.56,0,0,0-6.11-.83,16.38,16.38,0,0,0-8,1.82,16,16,0,0,0-5.5,4.78,21,21,0,0,0-3.19,6.6,26,26,0,0,0-1.05,7.26,25.11,25.11,0,0,0,1.21,7.81,21.23,21.23,0,0,0,3.52,6.66A16.35,16.35,0,0,0,701,192a16.82,16.82,0,0,0,7.53,1.65,20.53,20.53,0,0,0,6-.94,16,16,0,0,0,5.61-3,13,13,0,0,0,3.85-5.61l17.49,10.45a23,23,0,0,1-7.7,9.79,40,40,0,0,1-12.21,6.21,44.85,44.85,0,0,1-13.53,2.15,36.17,36.17,0,0,1-15.89-3.47A39.47,39.47,0,0,1,679.81,200a42.6,42.6,0,0,1-8.09-13A39.66,39.66,0,0,1,668.86,172.33Zm37.62,64a25.54,25.54,0,0,1-6.6-.94,33,33,0,0,1-7-2.8l4.84-10.67a7.74,7.74,0,0,0,2.64,1.6A8.17,8.17,0,0,0,703,224a5,5,0,0,0,3.3-1.1,3.92,3.92,0,0,0,1.32-3.19,7,7,0,0,0-1.21-3.79,16.58,16.58,0,0,0-3.41-3.8l6.6-4a38.83,38.83,0,0,1,7.21,6.82,13.75,13.75,0,0,1,3,8.91,12.89,12.89,0,0,1-3.24,8.63Q713.3,236.35,706.48,236.35Z"/><path class="cls-1" d="M766,134.05h24l24.86,78.1H793.05l-4-15.29H767l-4,15.29H741ZM785.57,129a11.79,11.79,0,0,1-5.72-1.32q-2.42-1.32-4.45-2.64a8.22,8.22,0,0,0-4.57-1.32,4.46,4.46,0,0,0-3.52,1.26,5.39,5.39,0,0,0-1.32,2.59c-.14.88-.22,1.36-.22,1.43H754.66a17.29,17.29,0,0,1,.83-4.29,24.08,24.08,0,0,1,2.69-5.89A17.81,17.81,0,0,1,763,113.7a11.68,11.68,0,0,1,7-2.09,11.16,11.16,0,0,1,5.94,1.43q2.31,1.42,4.35,2.81a8,8,0,0,0,4.56,1.37,4.51,4.51,0,0,0,3.58-1.32,7,7,0,0,0,1.54-2.75c.26-1,.38-1.47.38-1.54h11a15.13,15.13,0,0,1-.88,3.74,28.27,28.27,0,0,1-2.75,5.88,19.45,19.45,0,0,1-4.84,5.45A11.47,11.47,0,0,1,785.57,129Zm-.33,53.57L778,155.06l-7.25,27.5Z"/><path class="cls-1" d="M853.33,212.7a38.11,38.11,0,0,1-16.16-3.35,39,39,0,0,1-12.49-9,40.78,40.78,0,0,1-8-12.76,39.58,39.58,0,0,1-2.81-14.68,37.79,37.79,0,0,1,3-14.85,41,41,0,0,1,8.31-12.59,38.84,38.84,0,0,1,12.65-8.75,39.55,39.55,0,0,1,16-3.19,37.82,37.82,0,0,1,28.61,12.43,42.17,42.17,0,0,1,8,12.81,39.32,39.32,0,0,1,2.8,14.58,38.21,38.21,0,0,1-2.91,14.74,40.22,40.22,0,0,1-20.85,21.4A39,39,0,0,1,853.33,212.7Zm-17.71-39.6a26.63,26.63,0,0,0,1.1,7.64,21,21,0,0,0,3.3,6.61,15.8,15.8,0,0,0,5.56,4.61,19.31,19.31,0,0,0,16-.05,15.2,15.2,0,0,0,5.56-4.79,21.74,21.74,0,0,0,3.19-6.71,27.28,27.28,0,0,0,1-7.53,25.81,25.81,0,0,0-1.11-7.59,20.72,20.72,0,0,0-3.3-6.55,15.12,15.12,0,0,0-5.61-4.56,18,18,0,0,0-7.92-1.65,17,17,0,0,0-8,1.76,16.27,16.27,0,0,0-5.55,4.67,20,20,0,0,0-3.25,6.6A27.4,27.4,0,0,0,835.62,173.1Z"/><path class="cls-2" d="M145.38,20.75H122.94v59.4H101.49V20.75H78.94V2.05h66.44Z"/><path class="cls-2" d="M208.85,61.45v18.7H153.19V2.05h54.67v18.7H174.64v11H203V49.13H174.64V61.45Z"/><path class="cls-2" d="M213.36,40.33a38.3,38.3,0,0,1,2.69-14,39.7,39.7,0,0,1,7.87-12.48,38.29,38.29,0,0,1,12.59-9A40.26,40.26,0,0,1,253.29,1.5a39.55,39.55,0,0,1,19.58,4.67A30.49,30.49,0,0,1,285.3,18.55L268.91,30.21a13,13,0,0,0-4.13-5.94A16,16,0,0,0,259,21.36a23.48,23.48,0,0,0-6.1-.83,16.56,16.56,0,0,0-8,1.81,16.24,16.24,0,0,0-5.5,4.79,21.26,21.26,0,0,0-3.19,6.6,26.38,26.38,0,0,0-1,7.26,25.11,25.11,0,0,0,1.21,7.81,21.23,21.23,0,0,0,3.52,6.66A16.4,16.4,0,0,0,245.53,60a16.87,16.87,0,0,0,7.54,1.65,20.58,20.58,0,0,0,6.05-.94,16.1,16.1,0,0,0,5.61-3,13,13,0,0,0,3.85-5.61l17.49,10.45a23,23,0,0,1-7.7,9.79,40.09,40.09,0,0,1-12.21,6.21,45,45,0,0,1-13.53,2.15,36.22,36.22,0,0,1-15.9-3.47A40.14,40.14,0,0,1,224.3,68a42.74,42.74,0,0,1-8.08-13A39.46,39.46,0,0,1,213.36,40.33Z"/><path class="cls-2" d="M315.11,41.76V80.15H293.66V2.05h16.72l31.35,39.71V2.05h21.45v78.1H346.13Z"/><path class="cls-2" d="M411.8,80.7a38.19,38.19,0,0,1-16.17-3.35,39.1,39.1,0,0,1-12.49-9,40.78,40.78,0,0,1-8-12.76,39.57,39.57,0,0,1-2.8-14.68,37.79,37.79,0,0,1,3-14.85,41.19,41.19,0,0,1,8.3-12.59,39,39,0,0,1,12.65-8.75,39.56,39.56,0,0,1,16-3.19,37.77,37.77,0,0,1,28.6,12.43,42.1,42.1,0,0,1,8,12.82,39.24,39.24,0,0,1,2.81,14.57,38,38,0,0,1-2.92,14.74,40.15,40.15,0,0,1-8.25,12.59,39.7,39.7,0,0,1-12.59,8.81A39,39,0,0,1,411.8,80.7ZM394.09,41.1a26.41,26.41,0,0,0,1.1,7.65,20.51,20.51,0,0,0,3.3,6.59A15.6,15.6,0,0,0,404,60a19.34,19.34,0,0,0,16-.05,15.25,15.25,0,0,0,5.55-4.79,21.8,21.8,0,0,0,3.19-6.7,27.4,27.4,0,0,0,1-7.54,26.14,26.14,0,0,0-1.1-7.59,21,21,0,0,0-3.3-6.54,15.21,15.21,0,0,0-5.61-4.57,18,18,0,0,0-7.92-1.65,17,17,0,0,0-8,1.76A16.37,16.37,0,0,0,398.38,27a20,20,0,0,0-3.25,6.6A27.78,27.78,0,0,0,394.09,41.1Z"/><path class="cls-2" d="M460.75,80.15V2.05H482.2v59.4h35.42v18.7Z"/><path class="cls-2" d="M559.31,80.7a38.19,38.19,0,0,1-16.17-3.35,39.21,39.21,0,0,1-12.49-9,40.78,40.78,0,0,1-8-12.76,39.57,39.57,0,0,1-2.8-14.68,37.79,37.79,0,0,1,3-14.85,41.19,41.19,0,0,1,8.3-12.59,39,39,0,0,1,12.65-8.75,39.56,39.56,0,0,1,16-3.19,37.77,37.77,0,0,1,28.6,12.43,42.1,42.1,0,0,1,8,12.82,39.24,39.24,0,0,1,2.81,14.57,38,38,0,0,1-2.92,14.74A40.15,40.15,0,0,1,588,68.65a39.7,39.7,0,0,1-12.59,8.81A39,39,0,0,1,559.31,80.7ZM541.6,41.1a26.41,26.41,0,0,0,1.1,7.65,20.51,20.51,0,0,0,3.3,6.59A15.69,15.69,0,0,0,551.55,60a19.34,19.34,0,0,0,16-.05,15.25,15.25,0,0,0,5.55-4.79,21.57,21.57,0,0,0,3.19-6.7,27.4,27.4,0,0,0,1.05-7.54,26.14,26.14,0,0,0-1.1-7.59,21,21,0,0,0-3.3-6.54,15.21,15.21,0,0,0-5.61-4.57,18,18,0,0,0-7.92-1.65,17,17,0,0,0-8,1.76A16.37,16.37,0,0,0,545.89,27a20,20,0,0,0-3.25,6.6A27.78,27.78,0,0,0,541.6,41.1Z"/><path class="cls-2" d="M642,80.7A39.46,39.46,0,0,1,627.56,78a35.55,35.55,0,0,1-12.15-7.93,37.48,37.48,0,0,1-8.31-12.64,44.75,44.75,0,0,1-3-17,37.6,37.6,0,0,1,3.08-15.29A39.11,39.11,0,0,1,628.39,4.47a41.13,41.13,0,0,1,15.73-3,40.14,40.14,0,0,1,19.14,4.56A29.84,29.84,0,0,1,676,18.55L660.07,30.76a18.06,18.06,0,0,0-6.93-7.43,18.57,18.57,0,0,0-9.79-2.8,15.9,15.9,0,0,0-7,1.54,17.14,17.14,0,0,0-5.56,4.29,19.17,19.17,0,0,0-3.63,6.54,26.28,26.28,0,0,0-1.26,8.31,25,25,0,0,0,1.32,8.36A19.49,19.49,0,0,0,630.86,56a16.44,16.44,0,0,0,5.67,4.19,17.9,17.9,0,0,0,7.37,1.48,20.33,20.33,0,0,0,9.9-2.59,29.16,29.16,0,0,0,8.58-7.31v20.9A29.3,29.3,0,0,1,642,80.7ZM661.28,54H646.87V38.57H679V80.15H661.28Z"/><path class="cls-2" d="M689.55,80.15V2.05H711v78.1Z"/><path class="cls-2" d="M742.46,2.05h24l24.86,78.1H769.52l-4-15.29H743.41l-4,15.29H717.49ZM761.7,50.56l-7.25-27.5-7.26,27.5Z"/><path class="cls-2" d="M1.5,212.15v-78.1h30q13,0,21.72,5.23a33.91,33.91,0,0,1,13.21,14.08A43.15,43.15,0,0,1,70.91,173q0,11.88-4.9,20.68a34.13,34.13,0,0,1-13.75,13.64q-8.85,4.84-20.73,4.84ZM49.13,173A25.3,25.3,0,0,0,47,162.38a16.16,16.16,0,0,0-6-7.1,17.16,17.16,0,0,0-9.46-2.53H23v40.7h8.58A16.57,16.57,0,0,0,41,190.81a16.87,16.87,0,0,0,6-7.32A25.46,25.46,0,0,0,49.13,173Z"/><path class="cls-2" d="M95.11,134.05h24L144,212.15H122.17l-4-15.29H96.07l-4,15.29H70.14Zm19.25,48.51-7.26-27.5-7.26,27.5Z"/><path class="cls-2" d="M171.89,212.15v-78.1h21.45v78.1Z"/><path class="cls-2" d="M228.21,173.76v38.39H206.76v-78.1h16.72l31.35,39.71V134.05h21.45v78.1h-17Z"/><path class="cls-2" d="M289.7,212.15v-78.1h53.57v18.7H311.15v13h26.18v17.38H311.15v29Z"/><path class="cls-2" d="M385.84,212.7a38.19,38.19,0,0,1-16.17-3.35,39.1,39.1,0,0,1-12.49-9,40.78,40.78,0,0,1-8-12.76,39.57,39.57,0,0,1-2.8-14.68,37.79,37.79,0,0,1,3-14.85,41,41,0,0,1,8.3-12.59,38.84,38.84,0,0,1,12.65-8.75,39.56,39.56,0,0,1,16-3.19,37.77,37.77,0,0,1,28.6,12.43,42.17,42.17,0,0,1,8,12.81,39.33,39.33,0,0,1,2.81,14.58,38.22,38.22,0,0,1-2.92,14.74,40.25,40.25,0,0,1-20.84,21.4A39,39,0,0,1,385.84,212.7Zm-17.71-39.6a26.29,26.29,0,0,0,1.1,7.64,20.61,20.61,0,0,0,3.3,6.61,15.68,15.68,0,0,0,5.55,4.61,19.34,19.34,0,0,0,16-.05,15.25,15.25,0,0,0,5.55-4.79,21.74,21.74,0,0,0,3.19-6.71,27.28,27.28,0,0,0,1.05-7.53,26.14,26.14,0,0,0-1.1-7.59,21.14,21.14,0,0,0-3.3-6.55,15.28,15.28,0,0,0-5.61-4.56,18,18,0,0,0-7.92-1.65,17,17,0,0,0-8,1.76,16.27,16.27,0,0,0-5.55,4.67,20,20,0,0,0-3.25,6.6A27.39,27.39,0,0,0,368.13,173.1Z"/><path class="cls-2" d="M434.79,212.15v-78.1h35.86a24.22,24.22,0,0,1,10.56,2.31,26.65,26.65,0,0,1,8.36,6.21,29.06,29.06,0,0,1,5.44,8.75,26.38,26.38,0,0,1,1.93,9.79,28.69,28.69,0,0,1-1.32,8.69,26.58,26.58,0,0,1-3.85,7.65,27.08,27.08,0,0,1-6,6l16.5,28.71H478.68l-13.75-24h-8.69v24Zm21.45-42.68h13.53a4,4,0,0,0,2.53-1,7.58,7.58,0,0,0,2-2.86,11.14,11.14,0,0,0,.83-4.51,10,10,0,0,0-.94-4.57,7.65,7.65,0,0,0-2.31-2.8,4.62,4.62,0,0,0-2.69-1h-13Z"/><path class="cls-2" d="M568.1,212.15V171L555,199.94H543.57L530.48,171v41.14H509v-78.1h23.43l16.83,36.74,16.94-36.74h23.32v78.1Z"/><path class="cls-2" d="M621,134.05h24l24.86,78.1H648.07l-4-15.29H622l-4,15.29H596Zm19.25,48.51L633,155.06l-7.25,27.5Z"/><path class="cls-2" d="M668.86,172.33a38.1,38.1,0,0,1,2.7-14,39.67,39.67,0,0,1,7.86-12.48,38.33,38.33,0,0,1,12.6-9,40.24,40.24,0,0,1,16.77-3.36,39.42,39.42,0,0,1,19.58,4.68,30.29,30.29,0,0,1,12.43,12.37l-16.39,11.66a13,13,0,0,0-4.12-5.94,16.06,16.06,0,0,0-5.83-2.91,23.56,23.56,0,0,0-6.11-.83,16.38,16.38,0,0,0-8,1.82,16,16,0,0,0-5.5,4.78,21,21,0,0,0-3.19,6.6,26,26,0,0,0-1.05,7.26,25.11,25.11,0,0,0,1.21,7.81,21.23,21.23,0,0,0,3.52,6.66A16.35,16.35,0,0,0,701,192a16.82,16.82,0,0,0,7.53,1.65,20.53,20.53,0,0,0,6-.94,16,16,0,0,0,5.61-3,13,13,0,0,0,3.85-5.61l17.49,10.45a23,23,0,0,1-7.7,9.79,40,40,0,0,1-12.21,6.21,44.85,44.85,0,0,1-13.53,2.15,36.17,36.17,0,0,1-15.89-3.47A39.47,39.47,0,0,1,679.81,200a42.6,42.6,0,0,1-8.09-13A39.66,39.66,0,0,1,668.86,172.33Zm37.62,64a25.54,25.54,0,0,1-6.6-.94,33,33,0,0,1-7-2.8l4.84-10.67a7.74,7.74,0,0,0,2.64,1.6A8.17,8.17,0,0,0,703,224a5,5,0,0,0,3.3-1.1,3.92,3.92,0,0,0,1.32-3.19,7,7,0,0,0-1.21-3.79,16.58,16.58,0,0,0-3.41-3.8l6.6-4a38.83,38.83,0,0,1,7.21,6.82,13.75,13.75,0,0,1,3,8.91,12.89,12.89,0,0,1-3.24,8.63Q713.3,236.35,706.48,236.35Z"/><path class="cls-2" d="M766,134.05h24l24.86,78.1H793.05l-4-15.29H767l-4,15.29H741ZM785.57,129a11.79,11.79,0,0,1-5.72-1.32q-2.42-1.32-4.45-2.64a8.22,8.22,0,0,0-4.57-1.32,4.46,4.46,0,0,0-3.52,1.26,5.39,5.39,0,0,0-1.32,2.59c-.14.88-.22,1.36-.22,1.43H754.66a17.29,17.29,0,0,1,.83-4.29,24.08,24.08,0,0,1,2.69-5.89A17.81,17.81,0,0,1,763,113.7a11.68,11.68,0,0,1,7-2.09,11.16,11.16,0,0,1,5.94,1.43q2.31,1.42,4.35,2.81a8,8,0,0,0,4.56,1.37,4.51,4.51,0,0,0,3.58-1.32,7,7,0,0,0,1.54-2.75c.26-1,.38-1.47.38-1.54h11a15.13,15.13,0,0,1-.88,3.74,28.27,28.27,0,0,1-2.75,5.88,19.45,19.45,0,0,1-4.84,5.45A11.47,11.47,0,0,1,785.57,129Zm-.33,53.57L778,155.06l-7.25,27.5Z"/><path class="cls-2" d="M853.33,212.7a38.11,38.11,0,0,1-16.16-3.35,39,39,0,0,1-12.49-9,40.78,40.78,0,0,1-8-12.76,39.58,39.58,0,0,1-2.81-14.68,37.79,37.79,0,0,1,3-14.85,41,41,0,0,1,8.31-12.59,38.84,38.84,0,0,1,12.65-8.75,39.55,39.55,0,0,1,16-3.19,37.82,37.82,0,0,1,28.61,12.43,42.17,42.17,0,0,1,8,12.81,39.32,39.32,0,0,1,2.8,14.58,38.21,38.21,0,0,1-2.91,14.74,40.22,40.22,0,0,1-20.85,21.4A39,39,0,0,1,853.33,212.7Zm-17.71-39.6a26.63,26.63,0,0,0,1.1,7.64,21,21,0,0,0,3.3,6.61,15.8,15.8,0,0,0,5.56,4.61,19.31,19.31,0,0,0,16-.05,15.2,15.2,0,0,0,5.56-4.79,21.74,21.74,0,0,0,3.19-6.71,27.28,27.28,0,0,0,1-7.53,25.81,25.81,0,0,0-1.11-7.59,20.72,20.72,0,0,0-3.3-6.55,15.12,15.12,0,0,0-5.61-4.56,18,18,0,0,0-7.92-1.65,17,17,0,0,0-8,1.76,16.27,16.27,0,0,0-5.55,4.67,20,20,0,0,0-3.25,6.6A27.4,27.4,0,0,0,835.62,173.1Z"/></g></g></svg>